<svg aria-label="Logo Color" display="block" role="presentation" viewBox="0 0 296 80" xmlns="http://www.w3.org/2000/svg"><g d="M 25.65 7.32 C 25.65 13.98 20.48 17.76 7.99 19.4 C 7.99 24.26 9.68 25.7 13.67 25.7 C 14.89 25.7 16.05 25.54 17.14 25.23 C 19.56 24.54 22.1 25.85 23.09 28.16 L 23.09 28.16 C 20.43 30.41 16.38 32.15 11.31 32.15 C 4.5 32.15 0 28.57 0 20.07 C 0 18.79 0.1 17.41 0.31 15.87 C 1.74 5.37 7.27 0 16.23 0 C 22.32 0 25.65 3.02 25.65 7.32 Z M 8.65 14.03 C 15.92 12.95 18.33 10.96 18.33 8.3 C 18.33 7.02 17.46 6.1 15.41 6.1 C 11.78 6.1 9.73 8.4 8.65 14.04 Z M 55.96 0.66 L 57.14 0.66 L 52.84 31.58 L 49.63 31.58 C 47.85 31.58 46.36 30.23 46.18 28.46 L 46.18 28.46 L 46.08 28.41 C 43.47 31.02 40.14 32.1 36.86 32.1 C 30.77 32.1 27.54 28.87 27.54 21.76 C 27.54 9.06 35.07 0.1 46.69 0.1 C 50.68 0.1 52.22 0.66 55.96 0.66 Z M 46.49 18.43 L 48.13 6.76 C 47.41 6.66 46.65 6.61 45.67 6.61 C 40.81 6.61 37.27 9.78 36.2 17.57 C 36 18.95 35.89 20.13 35.89 21.1 C 35.89 24.58 37.12 25.76 39.78 25.76 C 43.21 25.76 45.87 22.89 46.49 18.44 Z M 82.99 2.05 L 82.26 3.4 C 81.05 5.64 78.59 6.99 76.06 6.66 C 75.22 6.55 74.36 6.5 73.52 6.5 C 70.96 6.5 69.32 7.73 69.32 9.52 C 69.32 13.67 81.1 12.39 81.1 20.63 C 81.1 21.09 81.05 21.55 81 22.01 C 80.13 28 76.6 32.1 68.4 32.1 C 64.46 32.1 60.87 30.87 58.47 29.13 L 58.47 29.13 C 59.66 26.4 62.63 24.83 65.53 25.53 C 66.55 25.78 67.59 25.9 68.56 25.9 C 71.58 25.9 73.17 24.36 73.17 22.37 C 73.17 17.86 61.45 18.99 61.45 10.65 C 61.45 4.46 66.26 0 74.76 0 C 77.78 0 80.85 0.72 83 2.05 Z M 114.73 0.61 C 110.58 18.43 101.47 32.76 88.57 39.52 L 88.57 39.52 C 87.09 36.34 87.92 32.56 90.6 30.29 C 91.73 29.33 92.77 28.31 93.74 27.19 L 86.62 1.08 L 90.27 0.81 C 93.4 0.58 96.22 2.7 96.88 5.77 L 99.37 17.46 C 99.52 18.13 99.68 18.84 99.73 19.51 L 99.83 19.51 C 102.07 15.23 104.05 10.23 105.62 4.84 C 106.35 2.33 108.68 0.62 111.3 0.62 L 114.73 0.62 Z M 144.61 10.7 C 144.61 12.34 144.51 14.18 144.2 16.28 C 142.61 27.24 137.75 32.15 130.53 32.15 C 127.71 32.15 125.36 31.48 123.41 30.36 L 123.27 31.36 C 122.62 35.98 118.66 39.42 113.99 39.42 L 113.99 39.42 L 119.42 0.77 L 122.54 0.6 C 124.36 0.5 125.94 1.87 126.08 3.69 L 126.08 3.69 L 126.18 3.74 C 128.74 1.13 132.07 0 135.55 0 C 141.54 0 144.61 3.07 144.61 10.7 Z M 125.72 13.77 L 124.24 24.32 C 125.42 25.14 126.95 25.7 128.74 25.7 C 132.79 25.7 134.83 23.29 135.86 16.07 C 136.12 14.33 136.22 12.9 136.22 11.72 C 136.22 7.73 134.89 6.6 132.43 6.6 C 129.05 6.6 126.34 9.42 125.72 13.77 Z M 176.26 0.66 L 177.44 0.66 L 173.14 31.58 L 169.93 31.58 C 168.15 31.58 166.66 30.23 166.48 28.46 L 166.48 28.46 L 166.38 28.41 C 163.77 31.02 160.44 32.1 157.16 32.1 C 151.07 32.1 147.84 28.87 147.84 21.76 C 147.84 9.06 155.37 0.1 166.99 0.1 C 170.98 0.1 172.52 0.66 176.26 0.66 Z M 166.78 18.43 L 168.42 6.76 C 167.7 6.66 166.94 6.61 165.96 6.61 C 161.1 6.61 157.56 9.78 156.49 17.57 C 156.29 18.95 156.18 20.13 156.18 21.1 C 156.18 24.58 157.41 25.76 160.07 25.76 C 163.5 25.76 166.16 22.89 166.78 18.44 Z M 209.49 0.61 C 205.34 18.43 196.23 32.76 183.33 39.52 L 183.33 39.52 C 181.85 36.34 182.68 32.56 185.36 30.29 C 186.49 29.33 187.53 28.31 188.5 27.19 L 181.38 1.08 L 185.03 0.81 C 188.16 0.58 190.98 2.7 191.64 5.77 L 194.13 17.46 C 194.28 18.13 194.44 18.84 194.49 19.51 L 194.59 19.51 C 196.83 15.23 198.81 10.23 200.38 4.84 C 201.11 2.33 203.44 0.62 206.06 0.62 L 209.49 0.62 Z" fill="transparent" height="39.52000001430511px" id="pz7m1zAUb" transform="translate(83.01 23.95)" width="209.49000488281257px"><g d="M 25.65 7.32 C 25.65 13.98 20.48 17.76 7.99 19.4 C 7.99 24.26 9.68 25.7 13.67 25.7 C 14.89 25.7 16.05 25.54 17.14 25.23 C 19.56 24.54 22.1 25.85 23.09 28.16 L 23.09 28.16 C 20.43 30.41 16.38 32.15 11.31 32.15 C 4.5 32.15 0 28.57 0 20.07 C 0 18.79 0.1 17.41 0.31 15.87 C 1.74 5.37 7.27 0 16.23 0 C 22.32 0 25.65 3.02 25.65 7.32 Z M 8.65 14.03 C 15.92 12.95 18.33 10.96 18.33 8.3 C 18.33 7.02 17.46 6.1 15.41 6.1 C 11.78 6.1 9.73 8.4 8.65 14.04 Z M 55.96 0.66 L 57.14 0.66 L 52.84 31.58 L 49.63 31.58 C 47.85 31.58 46.36 30.23 46.18 28.46 L 46.18 28.46 L 46.08 28.41 C 43.47 31.02 40.14 32.1 36.86 32.1 C 30.77 32.1 27.54 28.87 27.54 21.76 C 27.54 9.06 35.07 0.1 46.69 0.1 C 50.68 0.1 52.22 0.66 55.96 0.66 Z M 46.49 18.43 L 48.13 6.76 C 47.41 6.66 46.65 6.61 45.67 6.61 C 40.81 6.61 37.27 9.78 36.2 17.57 C 36 18.95 35.89 20.13 35.89 21.1 C 35.89 24.58 37.12 25.76 39.78 25.76 C 43.21 25.76 45.87 22.89 46.49 18.44 Z M 82.99 2.05 L 82.26 3.4 C 81.05 5.64 78.59 6.99 76.06 6.66 C 75.22 6.55 74.36 6.5 73.52 6.5 C 70.96 6.5 69.32 7.73 69.32 9.52 C 69.32 13.67 81.1 12.39 81.1 20.63 C 81.1 21.09 81.05 21.55 81 22.01 C 80.13 28 76.6 32.1 68.4 32.1 C 64.46 32.1 60.87 30.87 58.47 29.13 L 58.47 29.13 C 59.66 26.4 62.63 24.83 65.53 25.53 C 66.55 25.78 67.59 25.9 68.56 25.9 C 71.58 25.9 73.17 24.36 73.17 22.37 C 73.17 17.86 61.45 18.99 61.45 10.65 C 61.45 4.46 66.26 0 74.76 0 C 77.78 0 80.85 0.72 83 2.05 Z M 114.73 0.61 C 110.58 18.43 101.47 32.76 88.57 39.52 L 88.57 39.52 C 87.09 36.34 87.92 32.56 90.6 30.29 C 91.73 29.33 92.77 28.31 93.74 27.19 L 86.62 1.08 L 90.27 0.81 C 93.4 0.58 96.22 2.7 96.88 5.77 L 99.37 17.46 C 99.52 18.13 99.68 18.84 99.73 19.51 L 99.83 19.51 C 102.07 15.23 104.05 10.23 105.62 4.84 C 106.35 2.33 108.68 0.62 111.3 0.62 L 114.73 0.62 Z M 144.61 10.7 C 144.61 12.34 144.51 14.18 144.2 16.28 C 142.61 27.24 137.75 32.15 130.53 32.15 C 127.71 32.15 125.36 31.48 123.41 30.36 L 123.27 31.36 C 122.62 35.98 118.66 39.42 113.99 39.42 L 113.99 39.42 L 119.42 0.77 L 122.54 0.6 C 124.36 0.5 125.94 1.87 126.08 3.69 L 126.08 3.69 L 126.18 3.74 C 128.74 1.13 132.07 0 135.55 0 C 141.54 0 144.61 3.07 144.61 10.7 Z M 125.72 13.77 L 124.24 24.32 C 125.42 25.14 126.95 25.7 128.74 25.7 C 132.79 25.7 134.83 23.29 135.86 16.07 C 136.12 14.33 136.22 12.9 136.22 11.72 C 136.22 7.73 134.89 6.6 132.43 6.6 C 129.05 6.6 126.34 9.42 125.72 13.77 Z M 176.26 0.66 L 177.44 0.66 L 173.14 31.58 L 169.93 31.58 C 168.15 31.58 166.66 30.23 166.48 28.46 L 166.48 28.46 L 166.38 28.41 C 163.77 31.02 160.44 32.1 157.16 32.1 C 151.07 32.1 147.84 28.87 147.84 21.76 C 147.84 9.06 155.37 0.1 166.99 0.1 C 170.98 0.1 172.52 0.66 176.26 0.66 Z M 166.78 18.43 L 168.42 6.76 C 167.7 6.66 166.94 6.61 165.96 6.61 C 161.1 6.61 157.56 9.78 156.49 17.57 C 156.29 18.95 156.18 20.13 156.18 21.1 C 156.18 24.58 157.41 25.76 160.07 25.76 C 163.5 25.76 166.16 22.89 166.78 18.44 Z" fill="transparent" height="39.52000001430511px" id="mZMI_6Dgn" width="177.43999633789065px"><path d="M 25.65 7.32 C 25.65 13.98 20.48 17.76 7.99 19.4 C 7.99 24.26 9.68 25.7 13.67 25.7 C 14.89 25.7 16.05 25.54 17.14 25.23 C 19.56 24.54 22.1 25.85 23.09 28.16 L 23.09 28.16 C 20.43 30.41 16.38 32.15 11.31 32.15 C 4.5 32.15 0 28.57 0 20.07 C 0 18.79 0.1 17.41 0.31 15.87 C 1.74 5.37 7.27 0 16.23 0 C 22.32 0 25.65 3.02 25.65 7.32 Z M 8.65 14.03 C 15.92 12.95 18.33 10.96 18.33 8.3 C 18.33 7.02 17.46 6.1 15.41 6.1 C 11.78 6.1 9.73 8.4 8.65 14.04 Z" fill="rgb(26, 198, 104)" height="32.15px" id="fh8hATjbc" transform="translate(0 0)" width="25.64999999999999px"/><path d="M 28.42 0.56 L 29.6 0.56 L 25.3 31.48 L 22.09 31.48 C 20.31 31.48 18.82 30.13 18.64 28.36 L 18.64 28.36 L 18.54 28.31 C 15.93 30.92 12.6 32 9.32 32 C 3.23 32 0 28.77 0 21.66 C 0 8.96 7.53 0 19.15 0 C 23.14 0 24.68 0.56 28.42 0.56 Z M 18.95 18.33 L 20.59 6.66 C 19.87 6.56 19.11 6.51 18.13 6.51 C 13.27 6.51 9.73 9.68 8.66 17.47 C 8.46 18.85 8.35 20.03 8.35 21 C 8.35 24.48 9.58 25.66 12.24 25.66 C 15.67 25.66 18.33 22.79 18.95 18.34 Z" fill="rgb(26, 198, 104)" height="32px" id="lfzdDZ3OR" transform="translate(27.54 0.1)" width="29.599999999999994px"/><path d="M 24.52 2.05 L 23.79 3.4 C 22.58 5.64 20.12 6.99 17.59 6.66 C 16.75 6.55 15.89 6.5 15.05 6.5 C 12.49 6.5 10.85 7.73 10.85 9.52 C 10.85 13.67 22.63 12.39 22.63 20.63 C 22.63 21.09 22.58 21.55 22.53 22.01 C 21.66 28 18.13 32.1 9.93 32.1 C 5.99 32.1 2.4 30.87 0 29.13 L 0 29.13 C 1.19 26.4 4.16 24.83 7.06 25.53 C 8.08 25.78 9.12 25.9 10.09 25.9 C 13.11 25.9 14.7 24.36 14.7 22.37 C 14.7 17.86 2.98 18.99 2.98 10.65 C 2.98 4.46 7.79 0 16.29 0 C 19.31 0 22.38 0.72 24.53 2.05 Z" fill="rgb(26, 198, 104)" height="32.1px" id="PmnMfQ4a6" transform="translate(58.47 0)" width="24.52999999999996px"/><path d="M 28.11 0 C 23.96 17.82 14.85 32.15 1.95 38.91 L 1.95 38.91 C 0.47 35.73 1.3 31.95 3.98 29.68 C 5.11 28.72 6.15 27.7 7.12 26.58 L 0 0.47 L 3.65 0.2 C 6.78 -0.03 9.6 2.09 10.26 5.16 L 12.75 16.85 C 12.9 17.52 13.06 18.23 13.11 18.9 L 13.21 18.9 C 15.45 14.62 17.43 9.62 19 4.23 C 19.73 1.72 22.06 0.01 24.68 0.01 L 28.11 0.01 Z" fill="rgb(26, 198, 104)" height="38.91px" id="w1KlHMyDT" transform="translate(86.62 0.61)" width="28.110000000000042px"/><path d="M 30.62 10.7 C 30.62 12.34 30.52 14.18 30.21 16.28 C 28.62 27.24 23.76 32.15 16.54 32.15 C 13.72 32.15 11.37 31.48 9.42 30.36 L 9.28 31.36 C 8.63 35.98 4.67 39.42 0 39.42 L 0 39.42 L 5.43 0.77 L 8.55 0.6 C 10.37 0.5 11.95 1.87 12.09 3.69 L 12.09 3.69 L 12.19 3.74 C 14.75 1.13 18.08 0 21.56 0 C 27.55 0 30.62 3.07 30.62 10.7 Z M 11.73 13.77 L 10.25 24.32 C 11.43 25.14 12.96 25.7 14.75 25.7 C 18.8 25.7 20.84 23.29 21.87 16.07 C 22.13 14.33 22.23 12.9 22.23 11.72 C 22.23 7.73 20.9 6.6 18.44 6.6 C 15.06 6.6 12.35 9.42 11.73 13.77 Z" fill="rgb(27, 206, 172)" height="39.42px" id="gnAzrZZ9F" transform="translate(113.99 0)" width="30.61999999999999px"/><path d="M 28.42 0.56 L 29.6 0.56 L 25.3 31.48 L 22.09 31.48 C 20.31 31.48 18.82 30.13 18.64 28.36 L 18.64 28.36 L 18.54 28.31 C 15.93 30.92 12.6 32 9.32 32 C 3.23 32 0 28.77 0 21.66 C 0 8.96 7.53 0 19.15 0 C 23.14 0 24.68 0.56 28.42 0.56 Z M 18.94 18.33 L 20.58 6.66 C 19.86 6.56 19.1 6.51 18.12 6.51 C 13.26 6.51 9.72 9.68 8.65 17.47 C 8.45 18.85 8.34 20.03 8.34 21 C 8.34 24.48 9.57 25.66 12.23 25.66 C 15.66 25.66 18.32 22.79 18.94 18.34 Z" fill="rgb(27, 206, 172)" height="32px" id="HFU03fOaH" transform="translate(147.84 0.1)" width="29.600000000000023px"/></g><path d="M 28.11 0 C 23.96 17.82 14.85 32.15 1.95 38.91 L 1.95 38.91 C 0.47 35.73 1.3 31.95 3.98 29.68 C 5.11 28.72 6.15 27.7 7.12 26.58 L 0 0.47 L 3.65 0.2 C 6.78 -0.03 9.6 2.09 10.26 5.16 L 12.75 16.85 C 12.9 17.52 13.06 18.23 13.11 18.9 L 13.21 18.9 C 15.45 14.62 17.43 9.62 19 4.23 C 19.73 1.72 22.06 0.01 24.68 0.01 L 28.11 0.01 Z" fill="rgb(27, 206, 172)" height="38.91px" id="lJKnvayKy" transform="translate(181.38 0.61)" width="28.11000000000007px"/></g><g d="M 62.14 33.11 C 62.18 32.45 62.21 31.78 62.21 31.11 C 62.21 30.44 62.18 29.77 62.14 29.11 C 61.11 12.86 47.61 0 31.11 0 C 14.61 0 1.1 12.87 0.07 29.11 C 0.03 29.77 0 30.44 0 31.11 C 0 31.78 0.03 32.45 0.07 33.11 C 1.1 49.36 14.6 62.22 31.1 62.22 C 46.45 62.22 59.19 51.1 61.74 36.48 L 53.81 36.48 C 51.39 46.78 42.15 54.45 31.11 54.45 C 18.9 54.45 8.89 45.07 7.87 33.12 L 62.14 33.12 Z M 7.87 29.11 C 8.88 17.16 18.9 7.78 31.11 7.78 C 43.32 7.78 53.33 17.16 54.35 29.11 Z M 46.53 29.11 C 45.52 21.31 39.02 15.55 31.11 15.55 C 23.2 15.55 16.77 21.38 15.69 29.11 C 15.55 30.1 15.52 32.12 15.69 33.1 C 17.07 41.12 23.2 46.66 31.11 46.66 C 37.82 46.66 43.53 42.42 45.71 36.47 L 36.73 36.47 C 35.31 37.95 33.32 38.88 31.11 38.88 C 27.51 38.88 24.48 36.43 23.6 33.1 L 46.53 33.1 C 46.53 33.1 46.77 30.95 46.53 29.11 Z M 31.11 23.33 C 34.71 23.33 37.73 25.78 38.62 29.11 L 23.6 29.11 C 24.48 25.78 27.5 23.33 31.11 23.33 Z" fill="transparent" height="62.22px" id="u7NobrqhB" transform="translate(2.77 8.89)" width="62.20999999999999px"><path d="M 62.14 33.11 C 62.18 32.45 62.21 31.78 62.21 31.11 C 62.21 30.44 62.18 29.77 62.14 29.11 C 61.11 12.86 47.61 0 31.11 0 C 14.61 0 1.1 12.87 0.07 29.11 C 0.03 29.77 0 30.44 0 31.11 C 0 31.78 0.03 32.45 0.07 33.11 C 1.1 49.36 14.6 62.22 31.1 62.22 C 46.45 62.22 59.19 51.1 61.74 36.48 L 53.81 36.48 C 51.39 46.78 42.15 54.45 31.11 54.45 C 18.9 54.45 8.89 45.07 7.87 33.12 L 62.14 33.12 Z M 7.87 29.11 C 8.88 17.16 18.9 7.78 31.11 7.78 C 43.32 7.78 53.33 17.16 54.35 29.11 Z" fill="rgb(27, 206, 172)" height="62.22px" id="FYcw3FG4a" width="62.20999999999999px"/><path d="M 30.957 13.56 C 29.947 5.76 23.447 0 15.537 0 C 7.627 0 1.197 5.83 0.117 13.56 C -0.023 14.55 -0.053 16.57 0.117 17.55 C 1.497 25.57 7.627 31.11 15.537 31.11 C 22.247 31.11 27.957 26.87 30.137 20.92 L 21.157 20.92 C 19.737 22.4 17.747 23.33 15.537 23.33 C 11.937 23.33 8.907 20.88 8.027 17.55 L 30.957 17.55 C 30.957 17.55 31.197 15.4 30.957 13.56 Z M 15.537 7.78 C 19.137 7.78 22.157 10.23 23.047 13.56 L 8.027 13.56 C 8.907 10.23 11.927 7.78 15.537 7.78 Z" fill="rgb(26, 198, 104)" height="31.110000000000007px" id="c64N2Fbxr" transform="translate(15.573 15.55)" width="31.063187582824426px"/></g></svg>