<?xml version="1.0" encoding="UTF-8"?>
<svg id="Layer_1" xmlns="http://www.w3.org/2000/svg" version="1.1" viewBox="0 0 767.52 484.84">
  <!-- Generator: Adobe Illustrator 29.6.1, SVG Export Plug-In . SVG Version: 2.1.1 Build 9)  -->
  <defs>
    <style>
      .st0, .st1, .st2, .st3 {
        fill: #41b768;
      }

      .st1, .st4, .st5, .st6, .st7, .st8, .st3 {
        stroke-miterlimit: 10;
      }

      .st1, .st4, .st5, .st7, .st8, .st3 {
        stroke: #fff;
        stroke-width: .25px;
      }

      .st1, .st4, .st5, .st8 {
        fill-rule: evenodd;
      }

      .st2, .st9 {
        font-size: 14px;
      }

      .st2, .st9, .st10, .st11, .st12, .st13, .st14, .st15 {
        font-family: Marine-Black, Marine;
        font-weight: 800;
      }

      .st9, .st16, .st7, .st8 {
        fill: #959595;
      }

      .st10 {
        font-size: 17.44px;
      }

      .st10, .st11, .st12, .st6, .st13, .st14, .st15 {
        fill: #fff;
      }

      .st4, .st17 {
        fill: #45bda4;
      }

      .st11 {
        font-size: 18px;
      }

      .st5 {
        fill: #a4a6a9;
      }

      .st12 {
        font-size: 15px;
      }

      .st6 {
        stroke: #959595;
        stroke-width: .75px;
      }

      .st13 {
        font-size: 21px;
      }

      .st14 {
        font-size: 20px;
      }

      .st18 {
        fill: #231f20;
        font-family: Montserrat-Regular, Montserrat;
        font-size: 11px;
      }

      .st15 {
        font-size: 9px;
      }
    </style>
  </defs>
  <line class="st7" x1="645.6" y1="168.55" x2="645.11" y2="168.3"/>
  <line class="st7" x1="645.11" y1="168.3" x2="644.61" y2="168.55"/>
  <line class="st7" x1="475.51" y1="132.85" x2="476" y2="133.1"/>
  <line class="st7" x1="476" y1="133.1" x2="476.5" y2="132.85"/>
  <line class="st7" x1="682.05" y1="148.72" x2="682.3" y2="149.21"/>
  <line class="st7" x1="633.7" y1="233.02" x2="633.2" y2="232.77"/>
  <line class="st7" x1="633.2" y1="232.77" x2="632.71" y2="233.02"/>
  <line class="st7" x1="465.09" y1="274.18" x2="465.34" y2="273.68"/>
  <line class="st7" x1="465.34" y1="273.68" x2="465.09" y2="273.19"/>
  <path class="st8" d="M477.49,250.38c.8-.14.85.47,1.49.5.2.96-2.26.72-1.49-.5Z"/>
  <line class="st7" x1="62.42" y1="74.83" x2="62.67" y2="74.33"/>
  <path class="st8" d="M61.43,74.33h1.24"/>
  <line class="st7" x1="62.67" y1="74.33" x2="62.42" y2="73.84"/>
  <line class="st7" x1="463.36" y1="94.17" x2="463.61" y2="94.66"/>
  <line class="st7" x1="460.63" y1="98.63" x2="460.13" y2="98.38"/>
  <line class="st7" x1="483.44" y1="118.96" x2="483.44" y2="118.47"/>
  <path class="st8" d="M482.7,119.71c.33-.51.49-.88.74-1.24"/>
  <line class="st7" x1="483.44" y1="118.47" x2="482.95" y2="118.47"/>
  <line class="st7" x1="493.86" y1="129.87" x2="493.86" y2="130.37"/>
  <path class="st8" d="M493.86,130.37c.17-.32.19-.8.25-1.24"/>
  <line class="st7" x1="493.86" y1="130.37" x2="494.35" y2="130.37"/>
  <line class="st7" x1="640.64" y1="202.77" x2="640.15" y2="202.52"/>
  <line class="st7" x1="640.15" y1="202.52" x2="639.65" y2="202.77"/>
  <line class="st7" x1="460.13" y1="280.13" x2="460.13" y2="279.63"/>
  <line class="st7" x1="458.9" y1="280.38" x2="459.14" y2="280.13"/>
  <line class="st7" x1="459.14" y1="280.13" x2="458.9" y2="280.38"/>
  <line class="st7" x1="460.13" y1="279.63" x2="459.64" y2="279.63"/>
  <line class="st7" x1="618.08" y1="225.33" x2="617.83" y2="225.09"/>
  <line class="st7" x1="626.26" y1="234.01" x2="626.51" y2="234.51"/>
  <line class="st7" x1="626.51" y1="234.51" x2="626.76" y2="235"/>
  <line class="st7" x1="626.76" y1="240.46" x2="626.76" y2="239.96"/>
  <line class="st7" x1="541.96" y1="263.77" x2="542.21" y2="263.27"/>
  <path class="st8" d="M551.88,252.36c.32-.32.8-.8,1.24-1.24"/>
  <path class="st8" d="M552.37,252.36c1.34,1.99.14.03.99-.99"/>
  <line class="st7" x1="553.36" y1="251.37" x2="553.12" y2="251.12"/>
  <line class="st7" x1="551.88" y1="252.36" x2="552.37" y2="252.36"/>
  <line class="st7" x1="620.81" y1="216.65" x2="620.31" y2="216.41"/>
  <line class="st7" x1="620.31" y1="216.41" x2="619.82" y2="216.65"/>
  <line class="st7" x1="586.09" y1="326.25" x2="585.6" y2="326.25"/>
  <path class="st8" d="M588.08,327.49c-.66-.79-1.48-.98-2.48-1.24"/>
  <line class="st7" x1="585.6" y1="326.25" x2="585.6" y2="326.75"/>
  <line class="st7" x1="500.3" y1="372.37" x2="499.81" y2="372.12"/>
  <line class="st7" x1="490.39" y1="248.39" x2="490.14" y2="248.14"/>
  <path class="st8" d="M490.14,249.14v-.99"/>
  <line class="st7" x1="490.14" y1="248.14" x2="489.89" y2="248.39"/>
  <path class="st1" d="M654.03,138.3c-2.14-2.19-.83-5.64-1.49-9.92-.15-.97-1-2.27-.99-2.98.05-2.97,2.09-6.43,1.98-9.42-.03-.94-.42-2.15-.99-2.98.11-1.36,1.76-1.66,2.48-2.48.85-.97,1.02-2,1.98-2.98-1.65-3.71-2.03-8.65-.5-12.89,1.24.06,1.55.95,1.98-.5,2.5,5.92,4.22,12.62,6.45,19.34.33.99.59,2.35.99,3.47.29.81,1.25,1.67,1.49,2.48.33,1.11,0,2.47.5,3.47,1.5,2.98,5.4,4.04,4.46,7.93-2.92.22-3.52,2.76-4.96,4.46-4.74.71-8.8,2.11-13.39,2.98Z"/>
  <path class="st8" d="M653.04,138.8c-3.42-.11-5.54,1.08-8.43,1.49-.98-5.07-1.33-13.08-4.96-13.89.76-2.57-1.61-4.69-1.98-6.94-.15-.91.49-2.19.5-2.98,0-.7-.32-2.41-.5-2.98-.28-.9-1.18-1.64-1.49-2.48-.21-.57.12-1.38,0-1.98-.29-1.41-1.17-2.68-.99-3.97,6.4-1.86,12.78-3.75,19.84-4.96.68,1.5-.24,1.77,0,3.97.43,1.56,1.03,1.72.99,2.98-.08,2.48-3.12,3.64-3.97,5.46,1.9,4.34-.98,8.85-.99,12.89,0,1.86,1.45,5.16,1.49,7.93.02,1.93-.84,3.51.5,5.45Z"/>
  <path class="st8" d="M647.59,170.41c.25,1.12-.5,2.6-1.61,2.6-2.11,1.86-2.26-4.75-2.35-2.98-5.23-1.22-9.6-3.29-14.38-4.96-1.28-.72-1.04-3.36-1.98-4.46-.61-.7-1.33-.34-2.48-.99-.7-.4-1.17-1.44-1.49-1.49-1.12-.18-4.07.94-6.45,1.49-2.03.47-4.58,1.07-6.45,1.49-11.92,2.64-27.52,6.02-39.67,7.44.63-.73-.61-1.62-.5-2.48.19-1.46,1.29-1.59,2.48-2.98.82-.95,1.34-2.18,1.98-2.98.77-.95,1.82-1.6,2.48-2.48.33-.44.15-.64.5-.99.24-.25,1.01-1.24,1.49-1.98.25-2.07-1.45-2.19-.99-4.46-.91-.58-2.25-.72-2.48-1.98-.45-2.06,2.72-2.08,4.46-2.98,1.49-.76,5.67-2.52,9.42-1.98,1.15.17,1.89.93,2.98.99,2.22-.76,3.95-2,7.44-1.49,1.76-1.38,3.21-3.07,4.46-4.96.77-.72,1.93-1.04,2.98-1.49.22-2.21-.35-3.62-.99-4.96-.13-1.78,1.49-1.82,1.49-3.47-2.04,1.39-1.29-2.36-2.98,0-1.03-2.22,3.18-4.51,4.46-6.45-.45-1.66.39-2.5.99-3.47.46-.74.91-1.48,1.49-2.48,1.79-3.1,4.75-6.15,8.43-6.94,4.28-.93,10.06-1.62,13.89-3.47,1.17.66.18,1.49.5,2.48.21.65.81.8.99,1.49.16.6-.21,1.4,0,1.98.6,1.68,1.96,2.7,1.98,5.45.01,1.16-.68,1.84-.5,2.98.41,2.62,2.63,5.21,1.98,8.43,1.27,1.33.71-1.33,1.98,0,1.37,3.03,1.85,6.88,2.48,11.41.08.56,1.12.89.99,1.49-.53,2.48-.9,6.68-.5,10.41.1.92.76,1.48.99,2.48.63,2.66.65,6.34,1.49,9.42.91,3.34,1.2,3.14-.99,5.45l1.98,1.86Z"/>
  <path class="st8" d="M660.85,166.57c-.05-.49,1.61-1.12,1.61-1.12,1.61.25,1.56-1.29,3.97-.87-1.3.68-1.71,2.63-3.47,2.85,0,0-2.05-.3-2.11-.87Z"/>
  <path class="st5" d="M661.22,168.06l-.37.5c.12,1.57-1.48.84-2.85,1.49-.25.12-.29.88-.5.99-.7.38-1.78.12-2.48.5-.6.32-.98,1.21-1.49,1.49-1.38.76-2.86,1.23-4.46,1.98-1.37.65-2.52,2.34-4.46,1.49-.11-3.25,3.71-2.57,3.97-5.46,2.47-.18,4.45-.84,5.46-2.48,2.41.09,4.4-2.08,5.83-2.98-.12.87-2.55,2.66-.25,2.23l1.61.25Z"/>
  <path class="st8" d="M682.3,149.21c-.06,1.26-.72,1.92-1.98,1.98.36-1.52-.86-1.46-.5-2.98-1.82.99-2.77,2.85-3.97,4.46-1.76-.06-2-1.64-1.98-3.47-.46.36-.75.9-.99,1.49-1.51-.8-2.11-2.52-2.98-3.97-9.28.81-15.82,4.35-25.29,4.96.28-4.41.57-5.95.5-10.91,6.12-1.25,14.97-3.08,20.83-4.46,1.77-.42,3.89-2.26,4.46-4.46.58.08.88-.11.99-.5,1.49,1.11,1.77,4.53,4.46,2.98-1.83,1.31-2.95,3.33-3.97,5.45.09.4.5.49.5.99.85,1.49,1.8.55,3.47.5.66,1.16,2.46,1.18,1.98,3.47,2.26.38,2.18,3.11,4.46,3.47"/>
  <path class="st8" d="M681.8,153.18c.09,1.08-.41,1.58-1.49,1.49.53-.46.15-1.83,1.49-1.49Z"/>
  <path class="st8" d="M669.41,147.23c.99,1.68,1.15,2.87.5,4.46.86,1.13,1.2,2.77.99,4.96-1.12.53-2.18,1.13-2.98,1.98-.41-2.39-1.69-6.9-2.48-10.41,1.16-.49,2.44-.87,3.97-.99Z"/>
  <path class="st1" d="M631.72,216.16c-.38-7.27-5.28-14.5-4.46-21.82,1.4.41,1.28-.7,2.48-.5.28,1.4-.97,2.19-.99,3.47-.03,2.33,1.82,4.39,3.47,5.46.25,1.89.67,2.84,1.98,4.46,1.23,1.52,1.32,2.62,3.97,2.48-.16,1.16-.78,1.86-.5,3.47.09.8,2.36-.81,1.98,1.49-2.91.23-4.94,1.35-7.94,1.49Z"/>
  <path class="st8" d="M645.6,152.68c6.42-1.35,12.62-2.92,18.85-4.46.84,3.46,2.29,6.3,2.48,10.41-3.02-.42-4.22,3.57-6.45.99-.04,1.35.83,1,0,1.98-2.47.51-4.61.69-6.45,1.98-.51.36-.54,1.11-.99,1.49-.29.25-1.18-.23-1.49,0-.43.33-.13,1.12-.5,1.49-.33.33-1.15.17-1.49.5-.63.61-1,1.77-1.98,1.98-.58.08-.88-.11-.99-.5-.44-1.59,1.63-.68,1.49-1.98-.84-4.61-2.26-8.65-2.48-13.89Z"/>
  <path class="st1" d="M632.71,166.57c-1.43,2.21-1.58,5.69-3.47,7.44-.19,1.56,1.04.84.99,2.48-.02.65-1.08,1.57-.99,1.98.31,1.41.92,2.05,1.98,2.98.35.3.19.66.5.99.45.47.92.62,1.49.99.87.57,1.88,2.17,3.47,2.48-.17,1.64-1.49,2.15-2.48,2.98-.86.96-1.12,2.51-1.98,3.47-.85-.02-1.28.37-1.49.99h-2.98c-.96.69-1.47,1.84-1.98,2.98-18.85,3.96-38.03,7.6-57.03,11.41-1.7-6.59-3.51-17.95-4.96-26.78-.55-3.33-1.92-7.32-1.49-8.93.2-.75.65-1.31,1.49-1.98.39-.31,1.05-.16,1.49-.5.94-.7,2.71-3.19,4.46-3.47.16,1.16.78,1.86.5,3.47,11.31-1.7,24.43-4.36,36.7-6.94,1.13-.24,1.89-.76,2.98-.99,2.01-.43,4.61-.47,6.94-.99,2.45-.55,4.35-1.74,5.95-1.49,1.42.23,2.08,2.27,3.47,1.49,1.37,2.76,2.04,6.22,6.45,5.95Z"/>
  <path class="st8" d="M639.65,202.77v-.5c-1.03.3-3.26-.61-3.47.5-2.28-2.02-8.59-3.42-4.96-8.93,1.4-.14,1.37-.69,2.98-1.49-.42-2.24,1.16-2.48,1.49-3.97.8-.14.85.47,1.49.5-1.08-1.03.06-1.6.5-2.48.09-1.27-1.3-.55-1.98-1.49-1.13-1.54.63-.91-.99-1.49-.2-.07-1.23-.3-1.49-.5-.47-.36-.13-1.01-.5-1.49-.7-.93-2.14-.76-2.48-1.98.08-2.14,1.92-3.51,0-4.96.14-1.49,1.5-2.32,1.98-3.47.53-1.27-.16-2.73.99-3.47.56.09.28.5,0,.5,1.61.31,1.82-.16,3.97.5-.1-.03,1.38.42,1.49.5.1.08-.11.96,0,.99.25.08.89-.59,1.49-.5.47.08,2.43,1.3,3.47,1.49.48,4.45-3.05,4.89-1.98,9.92,1.57.24,1.75-.89,3.47-.5,1.3,1.8.09,4.42,0,6.45-.09,1.97.94,4.02-.5,4.96.63.24,1.26.35.5,1.98-.11.24-1.13.68-1.49,1.49-.66,1.5-.02,3.5-1.98,3.97.41,2.02.08,1.71,0,3.97-.4-.09-.49-.5-.99-.5"/>
  <path class="st8" d="M613.37,212.69c1.17-1.6,2,1.74,0,0h0Z"/>
  <path class="st8" d="M619.82,216.65c-.48-.01-.38-.61-.5-.99-1.8,4.13,3.95,4.97,5.46,7.44-1.38.37-6.12-.15-6.45-2.48-.58.08-.42.9-.5,1.49-1.24-.41-1.57-1.74-2.48-2.48-1.31-.15-1.63.69-1.49,1.98-2.62-2.46,1.8-5.56,1.49-8.93-.55-1.76-2-.3-2.98-.5-1.06-.21-1.44-1.17-2.48-1.49-.8-.24-1.8.73-2.48,0,.35-2.5-1.03-3.27-3.47-2.98-.7-1.45-2.02-1.69-2.15-3.72-.58-.41-2.15-.66-2.98-.74-.83-.08-1.98-.5-2.31.17-.33.66-1.57.5-1.98.99-.41.5-1.24,2.23-1.98,2.07-.74-.17-2.07-1.07-2.4-.99-.33.08-.5.25-.83.99-.33.74-1.07,1.98-1.98,2.07s-1.4.33-1.65.91c-.25.58-.66,1.65-1.24,2.15-.58.5-1.49.74-1.9,1.9l-1.32-7.6,22.23-4.13c3.05-.6,8.13-1.67,11.9-2.48,2.57-.55,7.13-2.03,10.91-2.48-.41,1.4.7,1.29.5,2.48l.08.33c1.74,5.62,2.93,12.2,4.88,17.52,2.28-.54,6.14-2.48,7.94-.5-.96,1.85-2.07,3.55-2.48,5.95-2.23.25-3.06,1.9-5.46,1.98.26-.73.73-1.25.99-1.98-.13-.45-2.2-1.32-1.98-.5-1.47.21.51-1.2.5-1.49-.03-.56-1.83-1.1-.99-2.48-.91-.26-.63,1.26-.99,1.49-.2.12-1.32-1.98-1.49.5-.88-.45-1.45-1.2-2.48-1.49-.36-1.52.86-1.46.5-2.98,1.56.55,1.31.23,2.48-.5.08-1.08-1.76-.23-2.48-.5.09-1.48-1.91-3.04,0-3.47-.07-.92-1.68-.3-1.98-.99-.31-.73,1.11-1.7.5-2.98-.23-.47-1.05-.6-.99,0-.31-3.06-.43-3.95,3.47-4.96-1.56-.67-1.87-1-.91-2.48l-.08-.5c-.77-.82-1.93.17-2.98.5-.2,1.19.91,1.08.5,2.48-.84.18-.94-.39-.99-.99-1.47.93-.79,2.14-2.48,1.98-.04,1.35.83,1,0,1.98-.4-.26-.8-.52-1.49-.5.55.61.43,1.02-.5.99-.23,1.55,1.25,1.4,1.98,1.98-.87,2.93.74,5.69.99,8.93"/>
  <path class="st8" d="M583.12,213.18c1.97-.51,2.45-2.51,3.47-3.97,1.54.04,3.08-.66,3.47-2.97.94.21,1.25,1.07,2.48.99,1.41-.09,1.67-1.79,2.48-2.48.71-.6,2.21.02,1.98-1.49.93.87,3.01.34,3.97.99.16.11-.14.85,0,.99.14.14.89-.16.99,0,.3.49.3,1.17.5,1.49.6.97.91,1.54.5,3.47-2.82-.11-4.71-3.38-6.94-2.48-1.25,1.63-.56,3.79-.99,5.45-.07.26-.94.81-.99.99-.12.38.21,1.15,0,1.49-.51.85-3.11.24-2.48,2.98-4.84-.7-2.42,5.85-4.96,7.44-2.19.28-2.61-2.98-4.46-1.49-1.12,1.1-.18,2.24-.5,3.47-.28,1.1-1.6,2.4-1.98,3.47-.27.73.25,1.74,0,2.48-.63,1.87-2.51,2.95-2.98,5.45-.25,1.34.68,2.99,0,4.46-2.74-.1-3.15,2.14-5.95,1.98-.67.33-.92,1.06-.99,1.98-1.87-.19-3.75,2.17-5.45.5-1.12.7-1.63,2.01-2.98,2.48-2.35-.79-4.71-1.57-4.96-4.46-3.58-.02-4.8-2.12-6.94-4.96-1.11-1.47-2.79-3.32-2.98-3.97-.34-1.2.85-2.88,0-3.97,3.4.75,1.97-3.32,4.46-3.47-1.09-1.84-.42-5.52.5-6.94,1.55-.23,1.4,1.25,1.98,1.98,2.33-1.55.59-4.34,1.49-6.45.49-1.14,3.14-.96,1.98-2.98.79.04,1.89-.24,1.98.5,1.22-.59,1.95-1.81,2.98-2.98.7-.8,2.09-1.91,2.48-2.98.26-.69.23-1.99.33-2.73.14-1.08-.15-3.49.17-4.63,1.73-6.28-.41-8.6.41-9.26.66,2.98,1.94,12.28,2.56,14.63,4.57-.39,8.28-1.64,12.89-1.98.65,2.66.97,5.64,1.49,8.43.44-.22.89-.44.99-.99v-.5Z"/>
  <path class="st1" d="M465.09,273.19c1.72-4.53-2.33-8.82,1.98-10.41,2.41.22,4.47,2.93,6.94,1.49.44-2.43-1.64-2.33-.99-4.96,1.72-.26,2.64-1.33,4.46-1.49.97-1.76-.65-1.8-.5-3.97.54-.98,3.58-2,2.48-2.98.9-.57,2.4-.46,2.98.5,1.87-.64.68-1.27,2.48-1.98,1.89.26,3.72.58,4.46,1.98,1.44-.71,1.41-2.89,2.98-3.47,1.26.56,2.81.82,3.47,1.98,1.22-1.26,1.13-3.83,2.48-4.96,1.53-1.54.84,1.68,2.98.99.59,1.34,2.59,0,3.47,0,.3-1.03-.61-3.26.5-3.47-.08-1.56,2.01-.96,2.48-1.98-.37-2.69,1.71-2.92,2.48-4.46.2-1.19-.91-1.08-.5-2.48.77-1.37,2.29.53,2.48.5,1.73-.3,2.06-2.78,4.96-2.48.11-2.09-.76-3.2-.99-4.96.54-1.04,1.59.06,2.48,0,1.04-.07,1.56-.8,2.48-.5,2.11.7,2.55,3.26,3.97,4.46,2.76-.28,4.73.23,5.95,1.49,1.58.43,1.53-.78,2.48-.99,2.12-.11,2.02,1.65,3.97.5,1.6-.22,1.97-1.67,2.98-2.48,1.3,1.68,3.02,2.93,4.96,3.97,0,1.54,1.17,3.23,0,4.46,2.87,3.08,4.52,7.38,8.43,9.42.89-.14,1.02.47.5.5-1.46,3.83-5.95,4.86-7.93,8.93-.79,1.62-.89,1.95-2.48,3.47-.61.59-1.35,1.89-1.49,1.98-.35.25-1.74.11-2.48.5-.22.11-.32.91-.5.99-.27.12-.73-.14-.99,0-1.01.54-2.13,1.74-2.98,1.98-1.37.4-4.89.14-7.44.5-1.06.15-4.36.87-5.95.99-2.08.15-3.96-.2-5.95,0-2.68.27-6.1,1.24-9.92,1.49-1.95.12-3.95-.14-5.95,0-7.45.53-14.94,2.86-21.32,1.49-.4,1.72.74,1.91.5,3.47-4.99.13-9.19,1.06-14.38.99"/>
  <path class="st1" d="M565.27,192.36c-.74.58-1.4,1.24-1.98,1.98,2.76,1.45.91,5.98.5,10.91-.13,1.56.23,3.24,0,3.97-.93,3-3.81,4.12-4.46,5.95-1.1-.82-2.69.11-2.98-.5-.83.16.35,1.31-.5,2.48-.17.23-1.41.34-1.49.5-.45.96.7,2.92-.99,2.98-.24,1.56,1.71,1.31.5,2.48-1.35.36-1-.99-1.98-.99-1.31.86-2.43,2.19-2.48,4.46-.02.94.76,1.61.5,2.48-.29.96-.61.76-.99,1.49-.28.54-.09,1.54-.5,1.98-.42.46-1.13-.67-1.49-.5-.07.03.89,1.04,0,.99-2.35-.12-1.7-1.85-4.46-2.48-.21-.94-1.07-1.25-.99-2.48-1.9.41-3.01,1.62-3.97,2.98-1.78.29-2.4-.58-3.47-.99-1.29.2-1.5,1.48-2.98,1.49-1.28-1.52-2.9-2.49-5.46-1.49-.69-1.46-2.42-1.88-2.48-3.97-2.67-.97-4.89-.42-6.94-.99-.96-14.41-3.38-27.37-4.46-41.66,4.22-.29,8-.81,11.41-1.49,1.24-.25,2.71-1.02,3.97-.99.05,0-.06.94,0,.99-.08-.08,1.48-.6,1.98-.5,1.63.35,3.38,1.64,4.96,1.98-.18.65-.87.78-.99,1.49,1.54-.18,3.54-.08,2.48-.5,1.39-1.21,2.42.6,3.97.5,2.24-.15,3.73-2.07,5.46-2.98,2.74,1.15,4.37-.67,5.95-2.48.76-.87,1.16-1.74,1.98-2.48,1.34-1.2,3.21-1.72,4.46-2.48,1.56-.94,2.59-2.37,4.46-2.48.73,7.21,1.99,13.88,3.47,20.33Z"/>
  <path class="st8" d="M482.95,118.47c-.09-.4-.5-.49-.5-.99-2.83-.52-2.17,2.46-4.46,2.48v-2.48c-1.56.78-1.51,2.96-2.48,4.46-1.33,2.05-2.63,6.02-3.97,8.93-1.7-.26-.76-2.39-.5-3.47.35-.8-2.34-.8-1.98,0-.52-3.03,1.2-7.27-3.97-6.94.16-1.15-.08-1.9-.5-2.48-1.43.7-3-.89-4.46-.99-1.27-.09-2.93.68-4.96,0-.26-.09-.81-.93-.99-.99-3.29-.99-8.53-1.44-12.89-2.48-.18-1.8-1.17-2.8-2.98-2.98.39-1.43,2.4-1.24,3.47-1.98,1.19-.79,1.64-2.32,2.98-2.98,4.51.71,5.25-2.36,8.43-2.98.7-1.29,1.68-2.29,2.48-3.47,3.05.26,2.87,3.74,3.47,6.45,1.57.24.18-2.46,1.98-1.98.09.42-.19.47-.5.5,1.49.59,1.95-1.36,3.47-1.49,3.46-.29,6.06,3.39,7.44,5.95,3.82-.39,5.22-.33,8.43.5,1.58.3,1.43-1.46,1.98-1.98.36-.35,1.34-.44,1.98-.99,1.18-1.01.83-1.31,3.47-1.98,1.39-.36,2.84.07,4.96-.5,1.9-.51,3.36-2.44,5.46-1.98-.15,1.81.08,3.23.5,4.46,2.46.61,4.72-1.31,5.45.5,1.01-.15,1.32-.99,1.98-1.49,1.46.36,2.09,1.55,1.98,3.47,1.08,1.56,3.4,1.89,3.97,3.97-2.7-.11-5.96.34-7.93-.5-1.27.06-.98,1.66-.99,2.98-1.45-.03-1.84-1.13-2.48-1.98-2.34-.14-4.58-1.33-6.45-.5-1.22.43-1.47,1.84-2.48,2.48-2.53.29-4.57-.17-5.95.99-.94.79-.57,2.11-1.98,2.98"/>
  <path class="st8" d="M494.35,130.37v3.47c.25,1.46.65-.66,1.49-.5,0,0,.12.79.5.5.71-.55,1.36-1.84,1.49-2.98.13-1.14-.9-2.84-.5-3.97.68-1.9,1.65-2.93,3.97-2.98.68-2.17-1.92-1.06-1.49-2.98.22-2.1,2.01-2.62,2.98-3.97,1.26-.41,1.54,1.15,2.98,1.49,1.9.45,4.55-.41,4.96,1.98,4.42.38,7.86,1.73,9.92,4.46.08,1.4-1.49,1.15-1.49,2.48.39,1.43,1.81,1.83,2.48,2.98.13,3.1,1.68,7.45-1.49,8.93.38,1.87-.6,2.37-.5,3.97-1.01.47-1.96,1.01-2.98,1.49-.47,4.09.13,5.94,3.47,6.45,1.17-2.14,3.55-3.06,3.47-6.45,2.31-.33,2.69-2.6,5.45-2.48,4.37,3.4,3.64,11.9,7.44,15.87-.98,1.34-.3,4.33-.5,6.45-1.6.61-.38-1.6-1.98-.99-1.53.95-2.31,2.65-1.98,5.46-.99.5-1.74,1.24-2.48,1.98.85,4.82-2.3,5.63-2.48,9.42-4.94.34-9.81,2.26-14.88,2.48-1.41.06-2.99-.51-4.46-.5-4.28.04-9.34,1.45-13.89,1.98-1.73.2-3.69-.11-5.46.5-1.63.36-.76-.99,0-.99.8-1.39,1.1-2.58,1.98-4.96.91-2.43,2.3-6.49,1.98-10.91-.22-3.04-1.91-5.43-1.49-7.93-1.9-.66-1.98-1.92-2.98-3.97-.24-.5-.87-.81-.99-1.49-.22-1.22.89-1.62.99-2.98.12-1.58-.59-2.81-1.49-3.97.75-2.41,2.9-4.21,2.48-8.43-.08-.8-.56-1.56-.5-1.98.27-1.64,2.21-2.34,1.49-3.97,1.68-.8,3.19-1.77,3.97-3.47"/>
  <path class="st8" d="M489.89,248.39c-.65.09-.78.99-1.49.99-1.04,0-1.26-.86-1.98-.99-.83-.15-3.34.42-3.47.5-.12.07.12,1.47,0,1.49-.63.1-.2-.78-.5-.99-.76-.55-3.32,1.44-4.46.5-.28-2.26.88-3.09.5-5.45,1.01-.28.97-1.49,1.98-.5-.8-2.28,2.15-4.68,2.48-7.44.4.09.49.5.99.5-.61-.82-.57-3.03-.99-4.46-.05-.18-1.15-1.36-.99-1.49.94-.75-.76.11-.99-.99.73-1.09-.06-3.7,1.49-3.97-1.75-12.3-2.36-25.74-3.97-38.18-1.41.38,2.35.35,2.48.5-.01-.02-.57.99-.5.99-.17,0,1.87-.8,2.98-1.49.87-.55,1.42-1.42,2.48-1.98.59-.31.93.51.99.5.56-.14.25-.57,0-.5,3.47-.98,8.1-.88,12.4-1.49,2.43-.34,7.2-1.04,10.91-1.49.52.64.02,1.56,0,1.49.21.64.86.79.99,1.49.18.95-.09,2.01,0,2.98.35,3.99,1.46,8.65,1.98,13.39.42,3.86.55,7.96.99,11.9.39,3.47,1.39,7.02,1.49,9.92.06,1.63-.72,2.36,0,3.97-2.44-1.73,1.65,2.52-.99.99.45,1.67,1.11.06,1.98.99.21.8-1.85,1.66-1.98.5-.68-1.37.04,1.29-.5,1.49-.37.13-1.2-.31-.99-.5-.53.47.52,1.32-.5,1.49-.59.1-.71-.9-.99-.99-.65-.2-2.01,1.68-1.98,0-1.76.99-.15,2.27-.5,4.46-2.74.11-1.46,5.62-4.46,3.97-.41,1.58-.32,3.65-.99,4.96-1.44.9-2.32-.99-1.98-.99-.51,0-.51,1.38-1.49.99,0-1.48-.89-2.08-1.98-2.48-1.69-.59-.34,1.84,0,.99-.24.6-1.14.53-1.49.99-.54.7-.33,2.13-.5,2.48-.11.23-1.61.19-.5.5-.39,1.14-2.33-.26-2.48-.99-1.27-.53-1.74,2.13-2.48.5-.78.17.43.87-.5.99"/>
  <path class="st8" d="M477,257.32c-2.42.06-3.75,1.21-4.96,2.48-.06,1.84,2.3,2.9.99,4.46-3.32-1.77-8.33-3.19-9.42,1.49-1.3.05-3-1.73-3.47-2.98-.26-.67.52-1.48.5-2.48-.05-1.86-1.79-2.95-.99-4.46-1.96-.55-2.71-2.85-4.46-3.97-.28-.18-1.28.24-1.49,0-.13-.15.16-.89,0-.99-.49-.33-1.73-.11-2.48-.5-.22-.11-.32-.91-.5-.99-3.03-1.37-3.74-3.77-1.49-7.44.55-.89.36-2.81.99-4.96-.87-.87-2.53-2.02-3.97-1.98-1.24.03-1.78,1.12-2.98.99-.71-1.67-.48-3.76-1.49-5.45-1.04-1.74-2.52-1.76-3.97-2.98-.4-.34-.6-1.11-.99-1.49-.51-.5-3.01-2.23-3.47-2.98-.51-.82-.64-2.83-.99-3.97-.42-1.35-1.02-2.22-.99-3.47.05-2.62,2.12-1.89.99-5.46.52-1.46,2.24-1.72,3.47-2.48-.46-2.94,1.35-3.6,1.98-5.45-.26-3.12-3.11-3.12-1.98-6.45,2.94-.69,5.41-1.86,7.93-2.98.51-3.66,3.09-5.15,2.48-8.43-.31-1.67-1.17-2.17-2.48-2.98-.99-.61-.91-1.83-1.98-2.98-.85-.91-2.09,0-1.49-1.49,11.57,0,21.77-1.38,32.73-1.98-.5,2.55.46,3.74,1.49,5.45.18.3.92.81.99.99.17.42-.2,1.09,0,1.49.77,1.54,2.07,3.21,2.48,4.96.52,2.22.24,5.22.5,7.93.71,7.45,1.85,16,2.48,22.81.18,1.96.57,4.22.5,5.95-.05,1.27-.73,1.41-.99,2.48-.14.59.46.29.5.5.06.3-.58,1.2-.5,1.98.17,1.74,2.04,3.42,1.98,5.95-.02.97-.47,1.17-.99,2.48-.72,1.83-.71,2.12-1.49,3.47-.45.78-1.26,2.66-2.48,2.98.8,1.93-.31,3.53-.5,5.45-.06.65.57,1.61.5,2.48-.11,1.26-1.71,2.73-.5,4.96Z"/>
  <path class="st1" d="M468.07,121.94c.73,2.2,0,2.91,0,5.45.15.67,1.24.41,1.98.5-.68,2.83,1.3,3,.99,5.45-.44.39-1.12.53-1.98.5.1,3.08-2.79,4.66-1.49,7.44,1.23.51,1.45-.52,1.98-.99,1.41-1.26,1.91-3.56,3.97-4.96,3.2,1.15.27,3.67,0,5.95-.27,2.28-.42,3.63.5,5.45-1.38.27-1.39,1.92-1.98,2.98-.56,1.58.54,3.15.5,4.46-.06,1.76-1.3,3.77-1.49,5.95-.12,1.35.35,3.52.5,4.46.08.53-.49,1.01-.5.99.13.59.71,1.41.99,1.98.8,1.63,1.28,3.33.99,6.94-11.28.29-21.24,1.9-32.73,1.98-1.6.44-.7-1.62-1.49-1.98-1.78-.04-2.87-.77-4.46-.99-.06-2.77-2.9-6.27-.5-8.43-.18-1.37-1.51-1.42-1.98-2.48-.83-1.85-.24-4.65-.99-6.45-.62-1.46-1.45-2.76-2.48-3.47-.57-.4-2.12-.3-2.98-.99-1.54-1.25-2.3-3.63-3.97-4.96-.29-.23-1.68-.46-2.48-.99-.54-.36-1.12-1.31-1.49-1.49-.9-.44-2.19-.02-2.98-.5-1.04-.63-.87-2.25-2.48-1.98,1.22-3.45-.88-8.07,1.49-10.91-.58-1.57-1.38-2.92-2.98-3.47-.73-1.11.51-.93.99-1.98.28-.6.17-2.08.5-2.48.18-.23,1.23-.34,1.49-.5.82-.51,2.2-1.84,3.47-2.48.35-3.82-.5-6.45-.5-9.92,1.08.09,1.58-.41,1.49-1.49,4.28,3.08,10.15-2.84,14.38-3.97.95,1.44-1.09,3.31-.99,5.46,4.58-1.01,8.75,1.08,10.41,4.46,2.95.37,5.07.49,7.93.99.66.12,1.95.33,2.48.5,1.36.41,2.57,1.69,3.97,1.98,2.2.46,4.83-.18,7.44.5.21.95,1.42.9.99,2.48,1.54-.05,2.37.61,3.47.99Z"/>
  <path class="st8" d="M368.28,174.23c1.03-.64,1.36-3.45,1.36-5.27s-1.49-1.16-.99-1.98c.5-.83-.83-2.81-.17-3.14l.66-.33s56.04-.83,61.66-2.15c0,0-.17,1.98,1.07,2.48,2.27-.25.05,2.16,0,3.47-.09,2.27,1.6,4.12,1.98,6.45,1.69.13,2.38,1.25,4.46.99.64,1.17-.07.92.5,2.48.3.75,2.51,1.22,2.98,2.48.08.21-.73.74-.5.99.28.29,1.17.25,1.49.5.33.25.62.69.99.99,2.2,1.79,2.54,3.13.5,6.45-.98.67.16,3.46-1.49,3.47-.87,1.51-1.54-1.35-1.98,0,1.22,1.91-3.5,2.11-5.46,2.48.29,1.32-1.47,3.1,0,3.97.46,1.19,1.99,1.31,1.49,3.47.53,1.85-1.86.78-1.49,2.48.36,1.52-.51,1.81-.5,2.98-.89-.06-1.05.61-1.65.83,0,0-1.73,1.32-1.57,3.14.16,1.8-3.09-3.15-4.71-3.47-.38-.08-4.31.87-5.46.99-12.61,1.34-29.5,1.43-42.65,1.49.46-1.02-1.25-1.45-1.49-2.48-.15-.63.56-2.14.5-2.98-.09-1.28-.75-3.15-.99-4.96-.05-.37.52-.52.5-.99,0,.02-.45-.68-.5-.99-.28-1.96.03-1.5-.99-2.48-.76-.73.16-.82-.5-1.49.26.27-1.2.37-.99-.5.47-6.26-3.69-7.88-3.47-13.89-1.26-.9-2.8-3.07-.99-2.98-.88-.43-1.94.12-1.98-1.49-.02-.89.38-1.02.5-.5"/>
  <path class="st8" d="M418.48,106.56c-.6-.65-.19-.78,0-1.49-1.99.64.14,1.03,0,2.48-1.4.09-.62,2.36-2.48,1.98-.32,3.73.5,8.04,0,10.41-1.7,1.12-3.73,1.32-4.96,2.98-.26.35-.04,1.67-.5,2.48-.24.43-1.3.48-.99,1.49.18,1.8,2.14,1.82,2.98,2.98.26,1.44-.78,2.01-.99,3.47-.3,2.1.6,4.25.5,5.95-.05.77-1.13,1.11-.99,1.49.23.64.83,1.76,0,1.49.17.84.69-.33,1.49,0,.13.05-.11.88,0,.99.15.15.86-.17.99,0,.27.35.12,1.56,0,1.49.13.07.71-.5.99-.5.55,0,.29.54,0,.5,1.2.18,1.05-.09,2.48,0,.7,1.73-.34.76.99,1.49.6.33,2.24,1.31,3.47,1.49.7,1.78,2.15,2.81,2.98,4.46,1,.62,2.77.52,3.47.99,2.37,1.58,2.16,4.75,2.98,7.44-19.53,1.46-39.91,2.08-61,1.98-1.43-7.77,2.34-25.12-.99-30.25-.08-.13-.97-.41-.99-.5-.06-.22.73-.73.5-.99,0,.01-1.44.78-1.98.5-.38-.2,0-2.76-1.49-2.48.43-.73.96-.62,1.98-1.98.15-.19.95-.89.99-.99.12-.29-.21-1.28,0-1.49,0,0,1.32.65,1.49,0,.12-.47-.83.13-.99-.5-.46-1.8.09-4.42-.5-6.94-.36-1.56-1.73-2.32-1.98-4.96-.21-2.21-.36-4.48-.5-6.45-.05-.75.5-1.98.5-1.98-.09-1-.87-2.13-.99-2.98-.38-2.57-.12-5.01,0-6.94-.5-.68-.82.21-1.49-.99-.31-3.47-1.96-6.72-1.49-11.9.19-2.07.17-4.25-.99-6.45,6.17-1.39,17.71.36,22.32-.99.95-.72-.04-3.06,0-5.45h2.48c.53-.46.03,2.2,0,1.98.08.59.57.23.5,0,.47,1.45,1.18,2.98,1.49,4.46.13.64.31,3.02.5,2.48-.66,1.97-1.26-.6-2.48.5.4.41.88.41,1.49.5-.1-.01.23.83.5.5,1.1-1.37,1.52.16,2.98.5.26.06.9-.54,1.49-.5-.14,0,3.84.75,4.46.99.2.08.85-.15.99,0,.53.53-.03,1.37.99,1.49.74.08,3.17-.07,2.98,0,1.48-.52.87-1.81,2.48-1.98,1.28-.14,3.17.02,4.46.5.31.11,1.92.94,1.98.99.56.47-.2,2.66,1.49,1.49.19,1.79,1.6,2.37,2.48,3.47,1.61-.04.35-2.96,2.48-2.48.88.15.63,1.46,1.49,1.98.72.44,3.18-.29,2.48,1.98,1.78.92,4.99-.05,5.95.5-.07-.95,1.66-2.03,2.98-2.98,1.86-.37,1.08,1.89,2.48,1.98,2.22-.55,4.25-.78,6.45-.5,1.08.14,2.62,2.2,4.46.99-.23,1.32-1.93,2.47-2.98,1.49-1.12.28.6.77-.5,1.49-2.61.86-5.68,1.26-6.94,3.47-.64.38-1.06-.78-1.49-.5-.05.03.55.78.5.99-.02.06-1.63,1.11-1.98,1.49-.71.75-1.13,2.15-2.48,1.98.51,1.87-1.18,1.95-1.98,2.98-.16.21-.29,1.32-.5,1.49-.59.47-1.3-.19-1.49,0-.13.13.65.69.5.99-.04.08-1.98,1-2.48,1.49-.67.65-1.22,2.33-2.98,2.48Z"/>
  <path class="st1" d="M459.14,280.13c.81,4.53-6.32,3.48-8.43,3.47.14-2.67,2.97-2.65,3.47-4.96-.69-.76-.83-2.54-1.49-2.98-1.36-.9-13.28.76-17.85.99-12.84.65-29.81,1.13-40.66,1.49-.18-14.53-.32-29.11-.99-43.14-.75-.91-2.14-1.17-2.98-1.98.17-2.98-2.87-2.76-2.98-5.45.75-.9,1.25-2.06,2.48-2.48.48-3.57-2.27-2.61-3.97-2.98.14-1.24-1.4-.8-1.98-1.49-.7-.83-.9-2.47-1.49-3.47-1.15-1.96-3.48-3.53-3.47-5.95,9.37.01,20.58.15,30.75-.5,2-.13,5.66-.29,8.93-.5,3.16-.2,6.38-1.47,8.43-.99,2.03.47,2.9,2.74,4.46,3.47-1.04,3.49-.17,7.69,1.49,10.41.56.93,1.55,1.58,2.48,2.48.36.35,1.18.61,1.49.99.33.41.1,1.16.5,1.49.47.39,1.99.63,2.48.99.79.58.51,1.42,1.49,1.49.69,2.12.59,5.03,1.98,6.45,1.79.3,1.46-1.51,2.98-1.49,1.07.58,2.28,1.03,3.47,1.49-.3,4.37-4.14,8.04-1.49,11.41.79,1.01,1.45,1.72,2.48,2.48.65.48,2.5.43,2.48,1.98,1.78-.6,2.94,1.07,3.97,1.98.31.28,1.27.67,1.49.99.3.44.12,1.58.5,2.48.24.59,1.74,1.4.99,2.98,0,.02-.97.6-.99.5.51,1.93,2.36,2.77,2.48,4.46,1.26.89,2.42-.55,3.47.99-.62.53.12,1.23,0,1.98-.12.72-.73,1-.99,1.98-.14.52.91.89,0,1.98.18-.22-1.22-.15-1.49,0-1.03.58-1.56,2.6-1.98,0-1.26,1.15-.71,2.21-.5,3.97-1.73.25-.64.85-.99,1.49-.25.45-.85,1.32,0,1.49"/>
  <path class="st8" d="M453.19,292.53c-.26,2.08.87,2.77.99,4.46-.38,1.6-1.37,2.6-2.98,2.98.44.88,1.57,1.45.5,2.48-.99.83-.63-.04-1.98,0,.14,1.45-.12,1.7-.99.99-.43,2.34-.41,4.88,0,5.95-.54,1.61-2.97,1.33-2.98,3.47-.99.83-.63-.04-1.98,0,.26,1.39.73,2.58.99,3.97-1.75-.27-2.17.8-2.98,1.49.21.97,1.42-.81.99,1.49-.55.94-.7,2.28-1.98,2.48-.32,1.08,1.41,1.58-.5,1.49-.49.87.98,1.26.99,1.49.01.26-.95,1.13-.99.99.64,2.02,1.73,1.06,1.98,2.48.1.56.49,1.46.5,1.49.1,1.13-.85.67-.99,1.49-.06.36.87,1.18.5,1.98-6.75-.28-13.48,1.16-20.83.99-1.02-.02-2.43-.54-3.47-.5-1.03.04-1.9.84-2.98.99-3.83.54-7.79-.53-11.41,0v-8.43c-.58.08-.88-.11-.99-.5-.88-.57-1.79,0-2.48,0-.04,0,.06-.94,0-.99-.57-.57-.66,1.53-1.98.99-1.67-10.36-.03-22.12-.99-32.73-.48-5.29-2.48-10.14-2.48-14.88,16.26-.1,33.73-.89,50.09-1.98,3.05-.2,7.68-2.12,8.43,1.98.04,1.49-1.46,2.52-2.48,1.49,1.34,1.22-1.83,2.75-.5,3.97,2.68,1.86,4.36-.7,8.43,0,.57,1-.89.73-.99.99-.17.43.41,1.14.5.99-.7,1.14-1.24,1.06-2.48,1.98.78,2.27-.18,2.31-1.49,3.47l-.99.99Z"/>
  <path class="st1" d="M360.46,74.33c.25,1.36.35,2.34.5,3.47.21,1.61-.12,2.93,0,5.95.02.44.61.76.5,1.49-.2,1.24.3,4.21.99,6.45.55,1.78,1.68,3.2,1.98,4.96.16.93-.5,1.79-.5,1.98,0,.79.88,3.66.99,5.45.06,1.06-.52,1.31-.5,1.98.01.28.23,3.81.5,5.45.14.83.17,2.08.5,2.98.22.59,1.31,1.36,1.49,1.98.56,2,.22,3.98.99,5.95-28.38,1.27-57.49-1.03-84.8-2.48,1.54-16.14,1.7-33.67,3.97-49.09,23.24,2.38,49.41,1.83,73.39,3.47Z"/>
  <path class="st1" d="M367.98,178.39c-2.64-3.14-6.71-3.71-8.51-5.37-1.47.63-3.58.17-5.45.5-1.41.24-2.06.4-2.98.99-.85-.45-2.34-.79-3.47-1.49-.99-.61-1.68-1.79-2.48-1.98-2.1-.51-4.78.1-6.94,0-18.32-.82-41.16-1.4-58.52-2.98.34-16.69,2.51-31.54,3.47-47.61,26.96,2.13,55.06,3.12,84.3,2.98.27,3.08-2.62,3-2.97,5.45.82.84,1.08,2.23,1.98,2.98.64.85,2.36.61,2.48,1.98.31,9.12-.63,19.47.5,27.77.21,2.46-1.49.28-1.98,1.49-.29,1.14.99,1.47.99,2.48,0,.87-.64,1.02,0,2.48.33.76.57,3.27,0,4.96-.26.78-1.68,2.31-.58,3.39l.17,1.98Z"/>
  <path class="st8" d="M382.77,220.13c-27.06,1.44-55.3-.24-81.82-.99-.38-6,.77-10.47.5-16.36-7.62-1.14-16.72-.8-24.3-1.98,1-10.57,1.14-22,2.48-32.23,14.58,1.88,34.07,1.67,50.09,2.98,4.65.38,9.94-.79,13.89,0,2.05.41,3.81,2.04,5.95,2.98.45.2.88.45.99.99,1.45.46,1.49-1.22,2.48-1.49,1.3-.35,4.44.68,5.95-.5,1.35.16.76,1.37,1.98,1.98,1.02.51,2.62,0,3.47.5.92.54,1.7,1.89,2.48,2.48.99.76,1.69,1.36,2.98,1.49-1.01,1.18.95,2.67.99,3.47.06.93-.45,1.96.99,3.47.42.43.53,1.29.99,2.48.51,1.31,1.43,2.44.99,5.45.03,1.45,1.52,1.46,1.98,2.48.47.72-.1,2,0,2.48.25,1.19.87,1.11.99,1.98.15,1.08-.52,1.29-.5,1.98,0,.11.48.89.5,1.49.03.78.07.64,0,1.49-.19,2.44.92,4.9,1.98,6.94.13.24.26,1.09.5,1.49.63,1.05,3.34,2.62,3.47,4.96Z"/>
  <path class="st1" d="M387.73,225.09c-.25.42-.71,1.53-.99,2.48-.26.88.22,2.33-.99,2.48.43,1.46.74-1.15,1.98-.5-.09,1.08.41,1.58,1.49,1.49-.54,3.35,2.7,2.92,3.47,4.96.06,11.35.82,21.99.5,33.72-31.54,1.4-63.79-.19-94.72-.99.7-16.49,1.32-33.06,2.48-49.09,15.93,1.59,33.71.6,50.58,1.98,5.25.43,11.3.22,16.36,0,5.85-.26,11.27-1.34,14.88-.5,1.85.43,1.66.52,2.98,1.98,1.43,1.43,2.26-1.68,2.48.5.84-.18.94.39.99.99-2.51-.7-1.12-.22-1.49.5Z"/>
  <path class="st8" d="M387.24,320.3c-1.59-.44-.68,1.63-1.98,1.49-1.56.24-1.94-.71-2.98-.99-2.22.05-3.41,2.54-4.96.5-1.66.98-3.37,1.92-4.96,2.98-1.56-.58-2.75-1.54-3.97-2.48-1.17-1.21-.92.74-2.48.5-.16-1.16-1.54-1.11-1.98-1.98-.92,1.23-2.87,1.43-2.48,3.97-1.55-.34-.65-1.32-.5-2.48-1.43-.1-2.52.13-2.98.99-1.17-.81-1.88-2.09-3.47-2.48-1.6-1.35-1.41,2.26-3.97,1.49.84-2.99-3.02-1.28-1.98-4.46-2.07-.08-4.14-.17-4.96.99-3.45-1.09-6.82-2.34-9.92-2.48.69-2.84-1.82-2.48-1.98-4.46-1.01,2.21-1.65.99-2.98.99-.31,0-.61.48-.5.5-2.12-.35-2.96-3.05-4.96-3.47.11-10.3.55-20.27.99-30.25-3.02-2.84-7.92-1.11-12.4-1.49-7.55-.64-19.07-1.51-27.15-1.86.5-3.22.5-4.84.87-7.07,34.77,1.92,71.14,2.26,108.11,1.98-.84,9.42,2.35,17.18,2.98,25.79.67,9.17-.49,18.28,0,28.76-3.94-.85-6.15-3.44-9.42-4.96Z"/>
  <path class="st8" d="M156.15,53.5c6.98.59,15.71,2.77,22.81,3.97,11.77,1.98,24.3,4.11,36.7,5.95,14.92,2.21,30.8,4.03,46.12,5.45,5.13.48,10.25,1.17,15.37,1.49,3.05.19,6.13.06,8.93.5-2.05,21.09-2.6,43.69-4.96,64.47-20.88-1.8-42.22-3.55-62.98-6.45-5.77-.8-11.64-2.16-17.36-1.98-1.38,1.43-1.29,4.33-1.49,6.94-2.06.08-.99-2.98-2.48-3.47-2.7-.55-1.58,2.71-3.97,2.48-2.07-.63-4.32-1.42-6.45-1.49-1.07-.03-1.55.89-2.48.99-.94.1-1.87-.5-2.98-.5-1.54,0-2.14.52-3.47.99-.56-2.58.01-7.5-3.97-7.93-1.12-1.07.41-1.69,0-3.47-.19-1.47-1.47-2.3-1.98-3.97-.72-2.33-.06-5.43-1.49-7.44-1.91-.32-2.75,1.75-3.97,1.98-1.67.32-1.41-.1-3.47-.99-.65-1.46.99-1.5.99-2.48,0-.19-.34-.77-.5-.5.69-1.22,1.33-.65,1.98-1.98-1.09-4.9,1.86-7.81,2.98-11.9,0-1.64-2.8-.5-3.47-1.49,1.32-1.34-.3-.21-.99-.99-.33-.37-.21-1.11-.5-1.49-.76-1-.74-.25-.5-1.49.06-.31-.82-1.16-.99-1.49-.68-1.32-1.61-3.18-2.48-4.46-.57-.83-1.32-1.18-1.98-1.98-.32-.39-.16-1.04-.5-1.49-.42-.56-1.07-.99-.99-1.98.07-.84.61-1.09.5-1.98-.35-2.8-1.82-4.38-2.98-6.45,1.18-4.94,2.35-9.88,2.98-15.37Z"/>
  <path class="st8" d="M281.11,135.82c-2.15,21.15-2.78,43.83-4.96,64.96-29.3-2.1-57.68-5.13-84.8-9.42,2.44-14.95,4.56-31.63,6.94-48.1.35-2.45,1.12-4.89,1.49-7.44.44-3.08-.17-6.44,1.98-8.43,3.11.28,10.51,1.25,15.87,1.98,17.04,2.34,36.24,4.59,54.05,5.95,3.13.24,6.3.64,9.42.5Z"/>
  <path class="st8" d="M216.15,195.83c27.67,3.07,55.82,5.67,84.8,7.44-1.4,21.57-2,43.96-3.47,65.46-30.36-1.96-60.27-4.61-89.76-7.93-.1-2.51.16-5.32.5-7.93,2.27-17.7,4.93-37.74,7.44-55.54-.04-.7-.08-1.4.5-1.49Z"/>
  <path class="st1" d="M283.59,277.16c-.73,6.09-.6,12.59-.99,18.84-.78,12.28-1.58,24.52-2.48,36.7-.44,5.94-.66,11.77-1.98,17.36-16.46-1.07-32.55-2.49-48.6-3.97-1.7.64,1.32,3.22,0,3.47-7.05-.88-14.59-1.27-21.32-2.48-1.46,1.68-.74,5.54-1.98,7.44-3.23-.74-7.41-.52-10.41-1.49,3.71-30.68,7.89-60.88,11.41-91.74,25.36,2.74,50.37,5.84,77.36,6.94l-.99,8.93Z"/>
  <path class="st1" d="M119.95,321.79c.15-1.17,1.72-.92,1.49-2.48.49-.48,2.35.63,2.98,0,.05-.05.82-2.34.99,0,.74-.43,0-2.63.5-2.98.28-.2,1.48.48,1.49.5-.11-.67-1.43-1.5-1.98-1.98-.61-.54-.85-1.26-1.98-1.49.66-2.15.07-3.31.5-4.96.16-1.25,2.26.67,2.48.5.3-.23-1-1.01-.99-.99-.15-.64,2.17-3.47,2.48-4.46.44-1.41-.06-3.09.5-3.97,1.77-2.8,4.04-1.81,5.95-4.96-.04-1.43-1-1.91-2.48-2.98-.1-5.1-3.96-8.94-.5-12.4-.13-5.47.17-11.27.5-14.88,2.26-.77,2.1.39,4.46.5.79.37-.11,2.43,1.49,1.98,1.32,1.28,1.56-1,2.48-1.98.73-.78,1-1.35,1.49-3.97.46-2.48,1.02-6.7,1.49-9.42,6.89,1.17,13.67,2.84,20.83,3.97.81.13,1.67-.13,2.48,0,11.79,1.92,26.61,4.13,40.17,5.95-4.22,30.33-7.55,61.54-11.9,91.74-9.29-.96-17.82-2.68-27.27-3.47-.41-.2-.46-1.2,0-.99-.82-.37-4.6-.38-3.47-2.48-1.02,1.16-2.22-.38-3.47-.99-1.05-.51-3.08-1.09-3.47-1.49-.1-.1.72-.85.5-.99-.49-.29-.39.48-.5.5-.61.12-.25-.41-.5-.5-2.4-.86-4.85-2.27-6.94-3.47-1.77-1.02-3.48-1.97-4.96-3.47-.27-.27-1.11.17-.99-.5-.02.13.84-.28.5-.5,0,0-2,.95-2.48,0-.03-.06.66-.92.5-.99-.45-.19-1.19.52-2.48,0-.93-.37-1.6-1.46-2.48-1.98-.53-.31-1-.22-1.49-.5-1.6-.93-4.49-2.48-6.45-3.97-.31-.23-1.11.14-.99-.5-.02.13.85-.28.5-.5-.48-.3-.4.48-.5.5-.44.09-3.1-2-3.97-2.48-1.46-.8-3.15-1.23-4.46-2.48Z"/>
  <path class="st1" d="M138.79,266.25c-1.98.16-1.34-2.29-2.98-2.48-1.53.08-2.8-1.17-3.97,0-1.3.26-.98,1.47-.99,2.48-.01.79.06,1.16,0,1.98-.13,1.75-.36,3.65-.5,5.46-.12,1.66.79,2.97.5,4.46-.24,1.25-2.24,1.45-1.49,2.98-10.41-14.56-22.28-32.55-33.72-49.09-1.8-2.6-4.06-5.39-5.95-8.43-.73-1.17-1.34-2.35-2.48-3.97-.22-.31-.81-.7-.99-.99-.24-.38-.2-1.05-.5-1.49-.5-.74-1.45-1.2-1.98-1.98-.32-.48-.22-1.04-.5-1.49-.94-1.51-3.02-3.78-4.46-5.95-2.36-3.54-3.49-4.11-2.48-8.43.2-.86.79-1.63.99-2.48.51-2.17.56-4.65.99-6.45,2.81-11.64,6.33-23.56,8.93-35.21,22.66,5.6,46.17,10.37,69.92,14.88-3.66,19.57-6.91,40.43-10.91,60-1.27,6.23-1.84,12.72-2.98,18.84-.56,3.02-1.42,5.93-1.98,8.93-.54,2.86-.41,6.04-2.48,8.43Z"/>
  <path class="st1" d="M157.63,170.04c11.7,1.86,22.87,4.24,35.21,5.46-.57,5.88-1.35,11.54-2.48,16.86,8.67.58,16.22,2.3,24.8,2.98-3.05,21.42-5.36,43.56-8.43,64.96-21.98-2.32-42.59-6.01-63.48-9.42,4.85-26.88,9.8-53.68,14.38-80.83Z"/>
  <path class="st1" d="M123.13,162.97c.78-5.22,1.92-8.92,2.84-13.46.95-4.7,1.51-9.52,2.47-14,.33-1.53,1.46-2.71,1.98-4,.5-1.25.4-2.96.69-4.21-.47-1.03-2.39-.74-2.31-2.31-.08-5.08,3.31-5.78,6.07-7.98-.92-1.56.4-2.23,1.03-3.26.56-.92,1.36-3.06,1.98-3.97,1.43-2.08,3.19-2.81,3.14-4.63-.03-1.3-1.24-2.39-1.98-3.47-.72-1.03-1.1-1.18-1.7-2.67l.49-1c-.52-1.22.04-1.4-.44-3.27-.15-.57-.2-2.28-.17-2.81,0,.08.47-.51.61-.91.52-1.47-.04-3.8.22-5.2.96-5.21,3.09-10.27,3.8-16.2.44-3.66,1.71-5.75,1.98-8.43.08-.79.43-2.35.5-2.48.14-.27.67-3.05.66-2.98.46-2.62.24-2.6,1.15-4.3l9.1,1.98c-.62,5.68-1.46,9.94-2.64,15.04,1.16,2.14,2.22,3.7,2.57,6.59.11.92-.43,1.18-.5,2.05-.08,1.02.57,1.47,1,2.05.34.46.17,1.13.5,1.54.67.83,1.42,1.19,1.99,2.05.87,1.33,1.8,3.25,2.49,4.61.17.34,1.06,1.22,1,1.54-.25,1.28-.27.5.5,1.54.29.39.17,1.16.5,1.54.69.8,2.52.25,1.2,1.64.67,1.02,3.27-.77,3.27.93-1.12,4.22-3.87,6.25-2.78,11.31-.66,1.38-1.3.79-1.99,2.05.15-.28-.16,1.06-.16,1.26,0,1.01-.49,1.14.17,2.64,2.07.92,2.45,1.16,4.13.83,1.22-.24,1.39-1.99,3.31-1.65,1.38,2.01.37,4.49,1.16,7.11.52,1.73,1.63,2.29,1.82,3.8.41,1.84-.79,2.69.33,3.8,4.93.55,3.27,3.98,4.13,8.1,1.34-.49,1.93-.82,3.47-.83,1.11,0,1.7.43,2.64.33.94-.1,2.4-1.19,3.47-1.16,2.13.07,4.04.68,6.12,1.32,2.39.24,1.26-2.72,3.97-2.15,1.49.51.08,3.72,2.15,3.64l-5.99,40.29-69.92-12.23Z"/>
  <path class="st1" d="M40.11,218.14c1.97.5,1.87,3.08,3.97,3.47.06-.61.09-1.99-.5-4.46-.33-1.39-1.37-3.34-1.49-5.46,1.01-.28,1.51-.08,2.48,0,.45.04.75.62,1.49.5.4-.07,2.18-.46,2.98.99,1.52.36,1.81-.51,2.98-.5.74.75.89,2.09,1.98,2.48.83-2.88-3.62-2.34-2.48-3.97-2.22,1.83-4.28-1.48-5.95,0-1.65-.5-1.55-2.74-3.97-2.48-1.48.5-.98,2.99-1.49,4.46-.96-.66-2.09-1.91-2.98-2.98-.78-.94-2.25-1.63-1.49-2.98.54.12.34.99.99.99-.23-2.24-.58-4.31-1.49-6.45-.25-.59-.67-.57-.99-.99-.25-.33-1.3-1.86-1.49-2.48-.13-.42.19-1.1,0-1.49-.75-1.52-2.26-2.99-2.48-4.46-.1-.67.92-1.95.99-3.47.07-1.49-.64-2.68-.5-3.47.51-2.69,2.49-3.43,1.98-7.44-.23-1.81-1.1-4.13-1.98-5.95-.51-1.05-1.88-2.2-1.98-3.47-.27-3.35,1.74-6.44,4.96-7.44-1.41-.87.77-1.68.99-2.48.18-.67-.34-2.08,0-2.98.52-1.33,1.95-2.05,2.48-3.47,1.04-2.83-.59-6.8.99-9.92,16.24,3.93,31.29,9.04,48.1,12.4-1.3,8.37-3.57,16.36-5.46,24.3-1.9,7.98-3.89,15.89-5.95,23.8,9.9,15.09,20.71,29.58,30.75,44.63.6.89.88,2.07,1.49,2.98.5.75,1.49,1.26,1.98,1.98.61.89.88,2.07,1.49,2.98.5.75,1.49,1.26,1.98,1.98.6.88.9,2.16,1.49,2.98.54.75,1.48,1.25,1.98,1.98.6.86.95,2.14,1.49,2.98.21.33.81.69.99.99,3.11,5.01,6.89,10.95,10.91,15.87-1.56,3.05,2.81,6.2,1.49,8.93.47,1.52,2.41,1.55,2.48,3.47-.43,1.81-2.57,1.73-3.47,2.48-.78.65-1.94,1.87-2.48,2.98-.64,1.3-.19,3.96-.99,5.45-.16.29-.75.62-.99.99-.45.68-1.01,1.5-2.48,1.98.16,2.27.51,2.75-.5,4.46-.06,1.72,2.18,1.12,2.48,2.48.57,2.06-1.04,1.93-.99,3.47-10.19-.88-23.57-2.43-35.21-3.47-.51-.69.49-2.01.5-1.98-.27-1.62-1.38-.49-1.49-1.49-.16-1.4.77-3.71.5-5.95-.76-6.16-5.84-8.37-8.43-13.39-1.4-.52-2.07-.52-3.47,0,.24-2.23-.25-3.72-.5-5.45-3.86-1.11-6.12-1.11-8.43-3.47-.64-.65-.55-1.71-.99-2.48-1.34-2.37-3.18-4.07-6.45-3.97-1.37-2.03-4.27-2.17-6.94-2.48-1.03-.12-1.32-2.52-2.98-2.48,1.52-2.11,1.05-6.22,2.48-8.43-.05-1.94-2-1.96-2.98-2.98.21-.94,1.07-1.25.99-2.48-.17-1.56-1.71-2.26-2.48-3.47-.22-.35.18-1.11,0-1.49-.15-.32-1.62-1.15-1.98-1.98-.69-1.6-.34-3.31-.99-4.96-.22-.56-1.16-.8-1.49-1.49-.36-.75-.23-1.51-.5-1.98-1.27-2.22-2.26-3.45-1.49-7.44,1.79.3,1.46-1.51,2.98-1.49.15-1.81-.08-3.23-.5-4.46-.21-1.11-2.63-.01-2.98-.99-.74-1.6-2.12-2.55-2.48-4.46-.18-.99.9-1.46.99-2.48.09-1-1.26-3.06-.5-3.47"/>
  <line class="st7" x1="39.11" y1="218.14" x2="39.61" y2="218.39"/>
  <path class="st8" d="M39.61,218.39c-.07-.77.07-1.58.5-2.23"/>
  <line class="st7" x1="39.61" y1="218.39" x2="40.11" y2="218.14"/>
  <path class="st1" d="M37.63,140.78c-1.24-3.24-.24-7.59,1.49-9.42-2.29-4.7,2.17-6.69,2.48-10.41,1.09,1.92,2-2.95,2.48,0,1.85-1.66-.46-2.15.5-3.97,1.18-.31.81-2.16,2.98-1.49.36-1.52-.86-1.46-.5-2.98,2.11-2.35,1.92-7,4.46-8.93-.5-5.41,4.34-9.46,4.96-15.37.73-.57,1.25-.57,1.98,0-.1-.65-.97-.78-.99-1.49-.03-.9.75-.94.99-1.98.2-.84-.15-1.87,0-2.48.47-1.86,1.51-3.42,1.49-5.45,1.6-.61.38,1.6,1.98.99,1.29-1.41,4.07-.13,3.97,1.49,2.45-.47,3.36.6,4.46,1.49-.36.64.46.81.5.99.95,4.49-2.08,6.04,1.49,8.43.59.4,1.37.11,1.98.5.44.28.29.87.99.99.97.17,2.54.18,3.47,0,1.01-.19,1.36-1,2.48-.99,2.87.03,5.13,1.11,6.94,2.98,1.9.92,3.91-.22,5.95,0,.95.1,1.97.96,2.98.99,3.5.1,6.95-1.02,10.41-.99,1.17.01,2.81.42,3.97.5,1.25.08,2.36-.14,3.47,0,3.54.44,7.01,1.77,10.41,2.48,3.6.75,7.01,1.51,10.91,1.98.6,1.47,1.26,2.45,1.98,3.47.75,1.07,1.95,1.69,1.98,2.98.05,1.81-2.04,3.39-3.47,5.46-.63.9-.92,2.06-1.49,2.98-.63,1.03-2.41,1.43-1.49,2.98-2.78,2.18-6.04,3.88-5.95,8.93-.08,1.56,2.01.96,2.48,1.98-.29,1.24-.12,2.6-.62,3.84-.52,1.28-1.66,2.45-1.98,3.97-.96,4.44-1.53,9.22-2.48,13.89-.92,4.5-2.24,8.99-2.98,13.39-23.46-4.39-46.48-10.75-68.31-16.74-.7-.19-1.2-.4-1.49-.5-5.02-1.62-10.29-1.96-14.88-4.46Z"/>
  <path class="st8" d="M83.25,51.52c1.1-.27.71.95,1.49.99-.2,1.23-1.92.03-1.49-.99Z"/>
  <path class="st8" d="M81.76,54c1.24.2.03,1.92-.99,1.49.18-.65.87-.78.99-1.49Z"/>
  <path class="st1" d="M62.42,73.84c.33-1.85-1.37-2.91.99-2.98-.32-.5-1.14-.51-.99-1.49,1.35-.04,1,.83,1.98,0,1-1.59-1.96-1.55-.5-1.98-.05-.96-1.85.77-2.48-.5-.11-2.26,2.73-1.57,3.97-2.48-1.5-.48-2.01-1.95-3.47-2.48.84-2.15-.42-4.56,0-7.44.17-1.18.75-3.93,0-5.95-.23-.62-.87-.8-.99-1.49-.21-1.16-.13-2.93,0-3.97,0-.04.87.65.99.5,0,0-.56-1.08-.5-1.49.13-.77,2.43-1.77.5-1.49.14-1.35.83.39,1.49.99,1.26,1.15,2.37,1.07,1.49,2.98.5-.32.51-1.14,1.49-.99.14,2.06,2.25,1.62,4.46,2.48.23.09.31.91.5.99.7.31,2.18.06,2.98.5.68.37,1.26,1.62,2.98.5-.65,2.2,2.84,1.57,1.49,2.98h1.98v2.98c-2.06-1.06-1.86,1.03-2.98,0-1.28.12.68.85,0,1.98-.67.46-4.15,2.41-4.46,3.47-.25.85,1.9,1.27.5,1.98.98-.68,2.83-.47,3.97-.99-1.42,1.06-2.11,2.84-4.46,2.98,1,.65.68,2.63,1.98,2.98.46-.36.75-.9.99-1.49.03.74,1.2.89.5,1.98,1.69-.72,1.87-2.22,2.98-2.98.43-.3.48.5.5.5.92-.13,1.93-1.63,2.98-1.98-.4-.96.47-2.05.5-2.98.01-.45-.42-1.75-.5-1.49.18-.64.72-.09.99-.5.31-.46-.3-1.51,0-1.98.42-.67,1.8-.89,1.98-1.98.86.45,1.91,1.11.99,1.98,1.81-.94-1.06-2.37-1.49-4.46-.29-1.45,1.37-3.3-.5-4.46.74-1.32,1.82-3.83,1.49-5.95-.11-.67-.79-.1-.99-.5-.11-.21.72-1.53,0-.5-.84-.32-.31-1.14.5-.99.03-.94-1.18-.09-.99,0-1.23-.58.55-2.06-.5-.99-.81-2.29,1.27-.57,1.98-.5,1.51.17,4.19.51,5.95.99,1.78.49,3.5,1.58,4.96,1.98.77.21,1.7-.16,2.48,0,1.59.32,2.91,1.72,3.97,1.98.28.07,1.21-.6,1.98-.5,1.13.16,2.33,1.19,3.47,1.49.77.2,1.7-.18,2.48,0,1.07.25,2.39,1.3,3.47,1.49,3.02.52,5.62,1.32,8.43,1.98,3.02.71,5.93.82,8.93,1.49.6.13,1.47.88,1.98.99,3.61.82,7.2.72,10.41,1.98-.91,1.68-.53,2.85-.99,5.45.01-.07-.35,1.71-.5,1.98-.06.12-.98.43-.99.5-.06.29.58,1.2.5,1.98-.28,2.66-1.54,4.8-1.98,8.43-.72,5.88-3,12.19-3.97,17.36-.26,1.39.03,2.5-.5,3.97-.14.4-1,1.57-.99,1.49-.04.53.84.92.99,1.49.49,1.86-.52,2.76,0,3.97-3.66.61-7.25-1.2-10.91-1.98-2.17-.47-4.99-.3-6.94-.99-.16-.06-.39-.97-.5-.99-.24-.06-.91.52-1.49.5-.92-.05-2.1-.9-2.98-.99-1.65-.17-1.91.27-3.47,0-.78-.13-4.05-.48-3.97-.5-.31.07-.5.99-.5.99-.81.04-1.83-.54-2.98-.5-1.01.04-5.55,1.22-6.45.99-.35-.09-.53-1.41-1.49-.99.83-.99-.04-.63,0-1.98-.62.12-.5.99,0,.99-.04.99-1.09.02-.99,0-.43.09-.83.97-.99.99-1.46.24-2.96-.17-4.96,0,.36-1.35-.99-1-.99-1.98-2.88.09-4.06-1.56-6.45-1.49-.54.02-1.17.9-1.49.99-.74.21-.74-.48-.99-.5-1.32-.06-1.95,1.07-2.48.99-1.1-.17-2.76-2.17-4.46-2.48-.19-3.07.66-4.96,0-7.44-.07-.27-.15-1.31,0-.99-.35-.75-.39.06-.5,0-2.11-1.08-.9-3.29-3.97-1.98.92-1.01-.24-.67,0-.5-.45-.33-.56-1.7-1.49-1.98-.34-.1-1.21.21-1.49,0-.36-.27-.26-1.54-1.49-.99"/>
  <path class="st8" d="M79.28,57.47c-.3,1.29.2,1.78,1.49,1.49.62,2.11-1.65,1.33-1.98,2.48-.67-.98-1.38-1.93-3.47-1.49-.14-1.93,2.66-1.53,1.49-1.98.74-1.07,1.4.54,1.98-.99"/>
  <line class="st7" x1="78.79" y1="56.97" x2="78.79" y2="57.47"/>
  <path class="st8" d="M78.79,57.47c.35-.14.58-.42.74-.74"/>
  <line class="st7" x1="78.79" y1="57.47" x2="79.28" y2="57.47"/>
  <g>
    <path class="st1" d="M75.02,376.26c.83-.04.91.68,1.06,1.33-.45-.34-1.04-.55-1.06-1.33Z"/>
    <line class="st3" x1="50.35" y1="395.36" x2="50.08" y2="395.36"/>
    <path class="st1" d="M50.02,395.63l.45-.12c.45.65,1.34.98,1.67,1.71.44.95,1.1,1.06,1.59,1.86.18-.3.88-1.09,1.75-1,.21.02.57-.17.5-.26-.12-.17-.75.04-.86-.07-1.09-1.04-2.45-1.61-2.55-1.86-.11-.29-.29-.98-.8-1.11-.4-.1-.58.24-1.09.51-.18.1-.5-.02-.73-.23-.55-.51-.94-.56-1.79-.76-.28.75-.28,1.11,0,1.86,1.1.3,1.03-.56,1.86-.53"/>
    <path class="st1" d="M167.61,420.57c-.55-.15-.56-.41-.27-.8-.31-.04-.47.06-.53.27-1.05-.81-1.82-1.89-2.12-3.45.31.04.47-.06.53-.27,1.02.1,1,1.58,1.86,2.12.26.16.86.05,1.06.27.35.37-.09,1.5.8,1.33-.15.55-.41.56-.8.27v.27"/>
    <line class="st3" x1="168.14" y1="420.57" x2="167.87" y2="420.44"/>
    <line class="st3" x1="167.87" y1="420.97" x2="168.14" y2="420.83"/>
    <path class="st1" d="M168.14,420.83c1.07.28-.14,1.2-.27,1.86-.59-.11-.11-1.31-.27-1.86"/>
    <line class="st3" x1="167.61" y1="420.83" x2="167.87" y2="420.97"/>
    <line class="st3" x1="167.87" y1="420.44" x2="167.61" y2="420.57"/>
    <path class="st1" d="M63.35,418.18c-.31.74-.3,1.38,0,2.12-2.25.82-4.09-.31-5.04-1.59.24-.89.49-.13,1.33-.27.35-.54,1.4-.36,1.59-1.06.71.26,1.36.59,2.12.8Z"/>
    <path class="st1" d="M162.04,421.1c-.64.4-.76-.39-1.06-.53-.11-.05-.45.08-.53,0-.8-.79.26-.52.27-.53.31-.43-.92-.9-1.06-1.06.11-.42.83-.23.53-1.06.53.09.83-.05.8-.53h.8c.54.88-.96.83-.27,2.12.47.15,1.56-.32,1.59.27"/>
    <line class="st3" x1="164.29" y1="420.3" x2="164.16" y2="420.04"/>
    <path class="st1" d="M164.16,420.04c.12-.33.34-.55.8-.53.11.5.57.67.53,1.33-.62.08-1.02-.04-1.33-.27"/>
    <line class="st3" x1="164.16" y1="420.57" x2="164.29" y2="420.3"/>
    <line class="st3" x1="162.04" y1="420.57" x2="161.9" y2="420.83"/>
    <line class="st3" x1="161.9" y1="420.83" x2="162.04" y2="421.1"/>
    <path class="st1" d="M164.16,417.92c.05.75-1.04.66,0,1.06-.39.79-1.03-.35-1.86,0v-1.06c.82.09,1.27-.61,1.86,0Z"/>
    <path class="st1" d="M163.89,421.63c.47.5.67-.22,1.59,0,.62.61.99,1.31,1.59,2.12.47.64,1.26,1.34,1.59,2.12.23.55-.21,1.31.53,1.59-.79.43-1.92-1.08-2.12-2.12-.06-.68-.46.36-1.06,0-.24-.5-.06-.89-.27-1.33-.19-.41-1.13-.44-.8-1.33-.06-.68-.46.37-1.06,0v-1.06Z"/>
    <path class="st1" d="M105.8,430.91v-1.33c.62.36,1.98-.04,1.86,1.06-.83-.13-.7.91-1.33.27"/>
    <line class="st3" x1="106.33" y1="430.91" x2="106.06" y2="430.78"/>
    <path class="st1" d="M105.57,431.22c.16-.02.39-.26.49-.44"/>
    <line class="st3" x1="106.06" y1="430.78" x2="105.8" y2="430.91"/>
    <path class="st1" d="M101.29,438.61c.36.08.22.66.27,1.06-.21-.14-.43-.28-.8-.27.09-.35.47-.42.53-.8Z"/>
    <path class="st1" d="M78.47,450.81c.21.14.43.28.8.27v.53c-.31-.04-.47.06-.53.27-.36-.08-.22-.66-.27-1.06Z"/>
    <path class="st1" d="M68.65,454.53c-.5.47-1.75.19-2.65.27-1.09.24-1.29,1.87-2.65,1.06-.25-1.57,1.45-1.2,1.33-2.65,1.86-.04,4.32-2.11,3.98,1.33Z"/>
    <path class="st1" d="M59.63,457.44c-.07.62-.71.61-1.06.27.23-.77.4-.3,1.06-.27Z"/>
    <path class="st1" d="M51.41,460.63c-.04.98-1.34,1.65-2.12,1.06.16-.91.87-1.25,2.12-1.06Z"/>
    <path class="st1" d="M53.27,461.69c.19.72-1.25-.19-1.06.53-.93-.45.52-.68,1.06-.53Z"/>
    <path class="st1" d="M49.29,462.22c-.07.82-.96.81-1.33,1.33-.75-.59.29-1.63,1.33-1.33Z"/>
    <line class="st3" x1="146.65" y1="412.61" x2="146.65" y2="412.34"/>
    <line class="st3" x1="147.98" y1="411.02" x2="148.11" y2="411.15"/>
    <line class="st3" x1="146.25" y1="410.22" x2="146.39" y2="410.49"/>
    <line class="st3" x1="119.33" y1="409.96" x2="119.06" y2="409.96"/>
    <path class="st1" d="M119.02,410.71c.04-.21.04-.53.04-.75"/>
    <line class="st3" x1="119.06" y1="409.96" x2="118.79" y2="409.96"/>
    <line class="st3" x1="81.12" y1="447.89" x2="80.86" y2="447.76"/>
    <line class="st3" x1="79.93" y1="448.42" x2="80.06" y2="448.69"/>
    <line class="st3" x1="79.8" y1="448.16" x2="79.93" y2="448.42"/>
    <path class="st1" d="M79.93,448.42c.4,0,1.05-.11.93-.66"/>
    <line class="st3" x1="80.86" y1="447.76" x2="80.59" y2="447.89"/>
    <line class="st3" x1="63.88" y1="409.96" x2="64.01" y2="409.69"/>
    <line class="st3" x1="78.74" y1="379.98" x2="79" y2="379.98"/>
    <line class="st3" x1="78.47" y1="379.45" x2="78.47" y2="379.71"/>
    <path class="st1" d="M78.47,379.71c-.21-.14-.43-.28-.8-.27-.19-.43,1.25-.43,1.06,0"/>
    <line class="st3" x1="78.74" y1="379.45" x2="78.47" y2="379.45"/>
    <path class="st1" d="M78.47,379.45c.25.1.37.34.53.53"/>
    <line class="st3" x1="79" y1="379.98" x2="79" y2="379.71"/>
    <line class="st3" x1="146.39" y1="409.96" x2="146.25" y2="410.22"/>
    <path class="st1" d="M147.31,410.75c-.38-.01-.73-.29-1.06-.53l.13.27h-.8c-.63,1.99-2.25,3.61-5.04,2.65.21-.92-.3-1.12-.53-1.59-.38.32-.4,1.01-.8,1.33-1.02-.35-2.21-.42-3.18-.27-.43.07-.73.56-1.33.8-.72.29-2.12.16-2.39,1.06-1.11-.3-1.33-1.5-3.18-1.06-.41-.48-.41-2.17,0-2.65-.65-.37-1.32,1.5-1.59,2.39-.9,0-1.97-.61-1.33-1.33h-1.33c-.44-.53.02-.34,0-1.06-1.16-.71-1.42.51-2.39,0v-.53c-.25-.96,1.15-.27,1.33-.8-.06-.38-.79-.09-.8-.53-1.3.72-2.07,2.4-3.45,1.06h-.8c.21-.24.29-.6.27-1.06-.81-.1-.55.86-.8,1.33-.75-.22-.69.37-1.33.27-.38,1,.73.51.53,1.33-.39.31-1.19.23-1.06,1.06.07.33.53.27.53,0,.27-.03.54,1.14.8.27.8.4-.91.47-.8,1.06.53.4.98.14,1.86,0-.44.45-.58,1.19-1.06,1.59.04.31.48.22.8.27-.46.51-.6,1.34-1.06,1.86-.99.02-1.68-.27-2.39-.53-.53-.08.26.69-.27,1.06-.1.07-.74-.1-.8,0-.38.7.51,1.76-.8,1.06.03.66.5.82,0,1.33-.67-1.44-.75,1.16-1.59.27-.68.06.36.46,0,1.06-.39.23-.84.4-.8,1.06-.55.11-.7-.18-1.06-.27-.37.09-.02.47.27.53-.69.1-.91.42-1.86.8-.12-.24-.23-.47-.53-.53.04-.85.6-1.17,1.59-1.06.05-.81.89-1.54,1.33-2.65-1.06.09-1.2,1.1-2.39,1.06,0-.26-.32-.21-.53-.27.02-2.49,2.29-4.23.8-6.63,1.21-.09,1.31-1.51,2.39-1.86.39-.12.62.28,1.06.27.95-.03,2.16-.51,3.18,0-.17-1.33-2.25-.76-2.92-1.59.34-1.07,1.09-1.74,1.86-2.39-1.05-.86-2.06.58-2.12,1.59-1.13-.04-1.34.51-1.59-.53-.2.63-.62.72-1.33,1.33-.64.55-1.06,1.45-2.12,1.86.25.49-.79.89,0,1.06-.54.61-.95,1.35-1.59,1.86.17,1.03.22,1.09-.27,1.86-.98.19-1.14-.45-2.12-.27.21.94,1.55.75,1.86,1.59.09,1.33-1.38,1.09-2.12,1.59.11.51,1.21.02.8,1.06-.45.1-.5-.21-.53-.53-.47.24-.34,1.08-1.33.8.25,2.11-1.99,1.72-1.33,4.24,1.82-.23,2.13-.05,3.18.8-.38.2-.34.87-.53,1.06-.41.41-.74.3-1.06.53-.11.08-1,.79-1.06,1.06-.04.17.42.47.27.8-.08.17-.97.06-.8.53.17.27.61.27.53.8-.35.17-.72.06-1.06.27-.23.14-.13.34,0,.27-.12.07-1.66.6-1.86.8-.12.13.08.63,0,.8-.06.13-.89.19-.53.8-.43.07-.46-.25-.8-.27-.29.5-.66.93-.8,1.59-1.47-.05-1.58,1.25-2.65,1.59.11.42.83.23.53,1.06-.08.35-.24,1.1-.8,1.33-.21.08-.61-.12-.8,0-.6.38-1.04,1.32-1.59.8-.55.07-.07,1.17-.53,1.33-.7.5-.89-.69-1.59.27-.1.45.21.5.53.53-.96.54-2.3.71-2.92,1.59.22.78.85-.16,1.33,0-.44,1.07-1.71,1.3-2.12,2.39-.99.16-1.98.32-2.12,1.33-.34.82-.34-.75,0-.8-.97-.17-1.41.18-1.86.53l-1.06.8c-.32.3-.48.76-1.33.53-.22.5-.37.2-1.06.53-.12.06-.88,1.15-1.33.53-.12-.57.38-.51.8-.53-.27-.35-.25-.99-.8-1.06-.85-.23-.82.42-1.33.53,0,.56-.05,1.2-.27,1.59-.14.26-.62.06-.8.27-.28.32.15.56-.27.8-.29.16-.79.72-1.06.53-.74-1.37-.26-2.16.53-3.45.37-.6.36-.41,1.33-1.06.64-.43,1.39-1.11,2.65-1.06.52.54.96,1.16,1.59,1.59.31-.04.22-.48.27-.8.21.23.73.16.8.53l.8-.27c.16-.69-.11-.95-.8-.8-.25-1.97.49-2.05,1.59-3.18.17-.17.35-.67.53-.8.95-.66,2.64-.42,2.92-1.86.43-.07.46.25.8.27.76-.04.49-1.11.53-1.86.86-1,1.83-1.88,2.65-2.92.59.12,1.44.61,1.59-.27-.4-.08-.47-.35-1.06-.8.32-.74.29-1.83.27-2.92.62,0,.78-.46,1.59-.27-.04-.58-.67-.57-1.33-.53-.25-1.93.89-2.47,1.86-3.18-.74-1.21.54-1.43.27-2.92-.64.15-.59,1-.8,1.59-1.15.62-2.43,1.1-3.45,1.86-.87.07-.77-.83-1.33-1.06-.19-.72.53-.53.53-1.06.85-.23.36.87,1.06.8,1.01-1.2-1.68-.96-1.59-2.12-.58.53-.13,2.09-1.33,1.33.51,1.33-.57,1.79.27,3.45-.78.31-.91-.62-1.33-1.06-.29-.3-.89-1.47-1.33-2.12-.38.15-.65.41-.8.8-.54-.61-1.27-1.02-1.86-1.59-.72.8-1.75.98-2.65,1.59-.6.41-1.04,1.2-1.86,1.33.46-1.19-.37-2.19.53-2.65-.18-.62-.88-.71-1.06-1.33-.01-.81.56-1.03.8-1.59.35-.76-.45-1.35-.8-2.12-.1-.22.1-.57,0-.8-.09-.21-.49-.41-.53-.53-.11-.31.09-.74,0-1.06-.04-.13-.53-.56-.53-.53.03-1.18.82-1.7,1.59-2.65-.19-.25-.48-.4-.8-.53-.67.92-.92,2.26-1.86,2.92-.05.75.9.52.53,1.59-.28.48-.51-.12-.8,0-.83.33-1.42,1.27-2.65,1.33-.52.02-.92-.46-1.59-.27-.44-.53.02-.34,0-1.06-.49-.84-1.58-1.08-1.59-2.39-1.1.91-.82-1.34-1.86-1.33.49-.66,1.2-1.1,1.59-1.86.51.11.67.57,1.33.53.23.85-.42.82-.53,1.33.95.07.97-.8,1.86-.8-.11.55.18.7.27,1.06,2.04-.25.85-1.66.53-2.92-1.29,1.4-2.36.03-4.24,0,.07-.55,1.17-.06,1.06-.8-.08-.36-.66-.22-1.06-.27.31-.1.31-1.29,0-.53-1.02-1.21,1.48-1.16,1.33-2.39-.36-.43-1.2.91-1.86,1.06.04.84-.71.89-.53,1.86-.59-.21.05-1.64-1.06-1.33-.29-1.03.94-.94.27-1.59l.27-.53c-.15-.38-.41-.65-.8-.8.08-.36.66-.22,1.06-.27-.24-2.27,1.22-2.85,1.86-4.24,1.08-.2.91.86,2.12.53-.17-.36-.57-.49-1.06-.53-.07-.87,1.03-.56,1.06-1.33-.07-.33-.53-.27-.53,0-.57-.17-.25-1.63,0-1.86.55-.11.7.18,1.06.27.72-.24-.71-.49-.27-1.33.64-.61,1.6-.04,2.12.27-.14.39-.39.67-.53,1.06.83-.5,1.66,0,2.39-.27,1.19-.43,1.57-1.88,2.39-2.65.92.22,1.92.47,2.65.27.69-.19,1.74-1.51,1.86-2.12.06-.31-.41-.82-.53-1.59-.06-.39.14-.96,0-1.33-.36-.92-1.14-1.21-1.33-1.86.83.49,1.72-.35,1.86-1.06.16-.85-1.14-1.28-.53-1.86-1.15-.27-1.18.59-1.59,1.06-.43-1.18-2.87,1.05-3.45,2.12-.68-.29-.42-1.53-1.59-1.33-.33.07-.27.53,0,.53-.14.57-.4-.23-.53-.27-1.28-.31-3,.42-4.51.27-1.43-.15-2.08-.89-3.18-1.06-.2-.91.19-2.25-.8-2.92.63-.25.79-.98,1.86-.8-.18-1.57-2.32-1.02-3.71-1.86-.65-.39-.53-1.11-1.33-1.33.65-.41,1.87-.25,1.86-1.33,1.36.89,1.72-1.2,2.92-1.33.84-.13.94.48,1.86.27.59-.04-.34-.67,0-1.33.57-.22.9-.69,1.86-.53.54-.56,1.97-1.22,2.92-.53-.31.67-.13,1.82-1.06,1.86.41.38.92.67,1.06,1.33.71.39,2.12-.53,2.65,0,.04.04-.04.53,0,.53.55.08,1.75-.93,2.12.27.81-.25.65-1.47,1.33-1.86.94-.41.16.9.8.8.46-.24.69-.93.27-1.33l.27-.26c.76-.03,1.74.14,2.12-.27.13-.83-.38-1.04-.53-1.59-.65.03-1.28.04-1.59-.27-.94-.14-.65.94-1.59.8.19-.72-.53-.53-.53-1.06-.23-1,.88-1.25.27-1.86-.49-.48-1.85-.1-1.59-1.33-.46,1.03-2.03.86-3.18.53-.28-4.5-3.76-5.79-6.1-8.22.5-.91.67-2.16,1.06-3.18,3.83.29,5.3-.09,6.63-2.39.11-.19.48-.65.53-.8.18-.47,0-1.29.27-1.86.55-1.18,1.69-1.77,1.86-2.92,2.13.01,3.32-.93,4.24-2.12.62.07.15,1.17,0,1.33.43-.07.46.25.8.27.23-.74.69-1.26,1.33-1.59-.43-.48-.84.19-1.33-.53-.13-.83.71-.7.8-1.33.31.04.22.48.27.8.91-.65,2.03-.35,2.92-.8,1.31-.65,2.03-1.9,2.65-3.18,1.09-.12.82,1.12,2.12.8.22,1.01-.56,1.03-1.06,1.33.15.38.41.65.8.8.91-.06,1.16-.79,1.33-1.59.39,0,.84,1.12.8,0,.48.41.21,1.55,1.06,1.59.9.1,1.13-.46,1.59-.8.96-.32,2.09.53,2.39,0,.35.4.09,1.14,0,1.59,1.25.35,3.13,1.87,4.24.26.42-.14.47.33.8.27.54-.11.85-.66,1.33-.8.14-.04.47.32.8.27.09-.02,1.69-.37,1.86.53.97-.62,2.04.5,3.18.53.72.02,1.59-.66,2.65-.53.64.08,1.23.8,1.86.8.75,0,2.15-.6,2.39-.8.21-.17.3-.39.27-.8.56-.31.85.32,1.33.27.69-.08.44-.62,1.06-.53.44.07.7.61,1.06.8.21.11.58-.1.8,0,.1.05.19.5.27.53.12.04.48-.33.8-.27.06.01.65.96,1.59.53,1.35,4.26,2.58,9.27,3.98,13.8.32,1.04.85,2.97,1.33,4.51.57,1.85,1.45,4.86,2.12,7.16,2.05,7.04,4.5,15.23,6.63,22.55.34,1.16,1,2.83,1.33,4.51.12.62.6,1.22.8,1.86.33,1.09.22,2.39,1.06,3.18,1.58.37,1.8-.91,2.92-.27.95-.46,2.02-2.14,2.65-1.59.33.29.05.78.05,1.23l.88.9Z"/>
    <path class="st1" d="M147.31,410.75c.34,0,.66.09.8.4"/>
    <line class="st3" x1="148.11" y1="411.15" x2="148.24" y2="411.02"/>
    <path class="st1" d="M155.14,414.47c-.73-.11-.25.99-.8,1.06-.26-.89-1.06-1.24-1.33-2.12-1.89-.5-3.1-1.67-4.78-2.39h-.27c.42,1.04-1.15.09-1.06.8.43-.19.43,1.25,0,1.06-.06-.21,0-.52-.27-.53l-.1-.56c-.23-.02-.33.34-.27.36.05.22.28.29.36.46,0,0-.48-.14-.61-.02-.45.43.31,1.04.08,1.34,1.71.03,3.2,1.18,4.78.53.34,1.16,2.39.61,2.39,2.12.83-.13,1.04.58,1.59,0,.29.08.07.84,0,.8.79.5,2.63.12,3.45.8-.42-1.56-.14-1.2,1.33-1.06.2-.82-.73-.51-.53-1.33-1.19.39-1.41.08-1.86-.8-.97-.24-1.41.47-1.86,0v-.27"/>
    <line class="st3" x1="155.14" y1="414.47" x2="155.14" y2="414.73"/>
    <path class="st1" d="M155.14,414.73c.15-.45.26-.9.8-1.06"/>
    <line class="st3" x1="155.94" y1="413.67" x2="155.67" y2="413.67"/>
    <line class="st3" x1="160.18" y1="409.16" x2="159.96" y2="409.38"/>
    <line class="st3" x1="160.18" y1="409.82" x2="160.45" y2="409.69"/>
    <line class="st3" x1="166.55" y1="412.87" x2="166.28" y2="412.87"/>
    <line class="st3" x1="166.95" y1="413.27" x2="167.08" y2="413.14"/>
    <path class="st1" d="M185.65,429.59c.5.03.18.88.8.8.57-.85.58-2.25.53-3.71-1.44-.68-1.77-2.47-2.12-4.24-.75-.22-.69.37-1.33.27-.88-1.05-2.34-.51-3.18-.53-1.08-.02-2.13-.93-2.92,0-.04-1.19-1.41-1.07-1.59-2.12-.62-.4-1.14.09-1.33-.27.1-1.32-1.28-1.73-1.86-2.12-.02-.01-.23-.23-.27-.27-1.3-1.25-2.78-2.53-4.24-3.18-.31-.39-.23-1.19-1.06-1.06h-.27c-.89.67-.22,2.59.53,3.18.42-.2-.06-1.3.8-1.06v1.59c.66.02,1.19-1.43,1.86-.53.11.64-1.21-.15-.8.8.59.56,2.16.14,2.12,1.33h-.53l.13.27-.13.27c-.2,1.33.98-.35,1.06.53-.05.75-1.26.33-1.06,1.33,1.01-.52,1.01-.39,2.12,0-.01-.46.2-.68.53-.8.09.62.32,1.1.53,1.59.7.31,1.56-.51,1.59,0-.01.34-.34.37-.27.8,1.07-.49.63.06,1.06.53.07.08.43-.05.53,0,.09.04.15.47.27.53.27.15.77-.11,1.06,0,.19.08.21.48.53.53-.05,0,.78-.6.8,0-.47.3-1.21.92-.53,1.59,0,0,.23,1.56.53,0,.11-.59,1.04-.5,1.33-.8.21-.22.05-1.34.8-1.06-.24,1.11.74,1.06,1.06,1.33,1.06.86.94,2.27,2.12,2.92-.39.23-.84.4-.8,1.06h1.06c-.04-.84,0-1.6.53-1.86,0,.59.2,1.24,0,1.86"/>
    <line class="st3" x1="166.81" y1="413.14" x2="166.95" y2="413.27"/>
    <line class="st3" x1="166.28" y1="412.87" x2="166.28" y2="413.14"/>
    <path class="st1" d="M166.28,413.14c-.66.23.08,1.85-.53,2.12-.84.13-.94-.48-1.86-.27-.17-.78-1.71-1.07-1.06-1.86-.55.11-.7-.18-1.06-.27-.25-1.43-1.73-1.63-1.86-3.18h.53c.4.31.81.54,1.59.8.17.06.68.07.53,0,.79.38,1.15,1.25,1.86,1.59.73.36,1.7-.39,2.12.8l-.27.27Z"/>
    <line class="st3" x1="159.91" y1="409.69" x2="160.18" y2="409.82"/>
    <path class="st1" d="M160.18,409.82c0-.21-.12-.31-.22-.44"/>
    <line class="st3" x1="159.96" y1="409.38" x2="159.91" y2="409.69"/>
    <path class="st1" d="M159.91,409.69c-.23.05-.25-.1-.27-.27-.72-.19.19,1.25-.53,1.06,1.37,1.9,2.6,3.94,3.98,5.84-.34.74-1.06-.33-1.33-.53-.99-.28-.76.66-1.59.53,1.03-1.03-2.08-1.93-.53-2.65-.22-.39-.85-.38-1.33-.53-.66.18.49.71.27,1.33-1.38.17-1.51-1.21-2.65-.53l-.27-.27c-.02-.39.87-.72,1.06-1.33.16-.49-.34-2.14,0-2.92.24-.55,1.48-1.31,1.59-1.33.33-.05,1.54-.3,1.86,1.06"/>
    <line class="st3" x1="155.94" y1="413.94" x2="155.94" y2="413.67"/>
    <line class="st3" x1="155.14" y1="414.73" x2="155.41" y2="414.73"/>
    <path class="st1" d="M120.78,417.25c.15-.03.21-.15.27-.27"/>
    <path class="st1" d="M163.36,423.49c.26-.88.52.3.8.27-.09,1.75-.15-.3-.8-.27Z"/>
    <path class="st1" d="M105.26,436.49c-.89.24-.03.59-.53,1.06-.98,0-1.17.77-1.59,1.33-.47-.19-.04-.48,0-.8-.46-.26-.67.53-.8.53-.3.01-.33-.95-1.33-.53-.56.23-.12.88-.53,0-.24-.51-.79-.82-.8-1.06-.02-.7.9-1.53,1.86-1.86.12,1.12.92,1.55,1.59,2.12-.46-.43-.01-1.16,0-1.59,0,.01-.05-1.01,0-.8-.12-.51-1.28-.66-.53-1.33.47.06.6.46.53,1.06.49.25.89-.79,1.06,0,.68-.03.53-.89.53-1.59.7-.08.87.37.8,1.06.76-.03.46-1.13,1.33-1.06.29.51-.35,1.68,1.06,1.59,0,.53-.72.34-.53,1.06-.69-.27-1.78-.47-2.12.27"/>
    <line class="st3" x1="105.26" y1="435.96" x2="105.13" y2="436.22"/>
    <line class="st3" x1="105.13" y1="436.22" x2="105.26" y2="436.49"/>
    <path class="st1" d="M105.53,437.81c-.17.27-.61.27-.53.8-.66-.11-.02-1.03.53-.8Z"/>
    <path class="st1" d="M103.14,439.14c.51.18-.15.36-.27.53-.08.12.09.42,0,.53-.04.05-.77.57-.8.53-.16-.27.83-.89,1.06-1.59Z"/>
    <path class="st1" d="M71.31,450.81c.17.08.49,1.5,0,2.12-.75-.05-.33-1.26-1.33-1.06-.99-.08.78-.66.53,0,.54-.07.53-.71.8-1.06Z"/>
    <path class="st1" d="M55.92,459.57c-.66.04-.82-.42-1.33-.53.22-.57.65-.94,1.59-.8-.04.74.75.87,1.06.53.67-.54-.51.64-.8.8"/>
    <line class="st3" x1="56.45" y1="459.57" x2="56.19" y2="459.43"/>
    <path class="st1" d="M55.26,460.36c.62.21,1.07-.33.93-.93"/>
    <line class="st3" x1="56.19" y1="459.43" x2="55.92" y2="459.57"/>
    <path class="st1" d="M54.59,461.16c-.19.25-.48.4-.8.53-.67-.11.44-.57.8-.53Z"/>
  </g>
  <g>
    <path class="st8" d="M224.15,404.12c.29,1.78-.58,2.4-.99,3.47-1.93.11-2.57-1.07-3.97-1.49.46-1.73,3.12-3.21,4.96-1.98Z"/>
    <path class="st8" d="M241.01,411.06c.11,2.2,2.44,2.19,2.48,4.46-1.02.89-2.25-1.43-2.98-1.49-.24-.02-.71.88-.5.99-1.1-.55-1.88-1.08-2.48-2.98,1.98.49,1.49-1.48,3.47-.99Z"/>
    <path class="st8" d="M257.87,420.48c2.85-.21,4.99.3,5.45,2.48-1.16.49-2.44.87-3.97.99-.4-.92-.64-2-1.49-2.48"/>
    <line class="st7" x1="257.87" y1="421.47" x2="258.12" y2="420.98"/>
    <path class="st8" d="M258.12,420.98c-.4-.01-.58-.22-.83-.41"/>
    <line class="st7" x1="258.12" y1="420.98" x2="257.87" y2="420.48"/>
    <path class="st8" d="M251.92,420.98c.2-1.24,1.92-.03,1.49.99-.65-.18-.78-.87-1.49-.99Z"/>
    <path class="st8" d="M266.3,428.91c1.44.72,3.05,1.31,4.46,1.98,2.05.98,3.81,1.54,4.96,3.47.35.58.09.57.5.99.4.42.59,1.07.99,1.49.18.19.97.93.99,1.98-1.44-.34-1.53,1.55-2.98,1.98-.68.2-1.87-.34-2.48,0-1.75.98-3.01,2.09-3.47,3.97-1.45.13-1.52-1.12-2.98-.99.14-3.28-.21-6.07-1.49-7.93.43-1.72,1.55-2.75,2.48-3.97-.29-1.04-1.23-1.42-.99-2.98Z"/>
    <path class="st8" d="M251.18,417.26c.5.18.99.39,1.49.5"/>
  </g>
  <path class="st8" d="M709.08,87.72c.96-.2.73,2.26-.5,1.49v-.99c.42.09.47-.19.5-.5Z"/>
  <path class="st8" d="M694.2,98.13c1.86.43.57,2.2-.99,1.98.26-.73.73-1.25.99-1.98Z"/>
  <path class="st8" d="M658.87,93.55c.08-.83,1.34-.2,1.98-.5,1.14-.52.65-2.38,2.48-1.98-.29-1.04-1.23-1.42-.99-2.98.43-1.55,1.23-2.74,2.48-3.47-1.31-1.34.53-1.86.5-2.98-.05-2.01-1.63-3.45-1.49-5.45,0,.1.29-2,.5-2.48.19-.43.93-.29.99-.99.15-1.58-.61-3.34-.5-4.96.1-1.41,1.03-2.11,1.49-3.47.33-.98.14-2.33.5-3.47.29-.94.72-1.72.99-2.48.25-.7.72-1.78.99-2.48.26-.66.33-2.26,1.49-1.98,1.3-.38.63.9.99,1.49.57.91,1.58,1.05,1.98,1.98,2.67-.97,4.47-2.81,6.45-4.46.91.16,2.3-.03,3.47.5.42.19.61,1.24.99,1.49.44.29,1.66.11,1.98.5.37.44.89,2.67,1.49,4.46,1.1,3.29,1.95,6.91,3.47,10.91.47,1.22,1.4,3.05,1.49,5.45.91,1.07,2.92,1.04,4.96.99-.02,3.32,1.5,5.11,2.98,6.94.51-.48,1-.98,1.49-1.49,1.15.34,1.33,1.65,2.48,1.98,0,.99-1.35.63-.99,1.98.34.98,1.65,2.18,1.98.5,1.13,1.03-1.37,4.61-2.98,2.98-.67,1.65-1.59,3.03-2.98,3.97-.54-.12-.34-.99-.99-.99-1.34.12-.54,2.08-.5,1.98-.41.82-2.23.24-1.49,1.98-.87-.45-2.47-.17-2.98-.99-.79,1.34-1.08,2.61-2.48.99v3.97c-3.07.92-1.51-2.79-2.98-3.47-1.45-.93-.67,1.43-.99,1.98-.06.11-.96-.11-.99,0-.25.82.5,1.51.5,2.48,0,1.73-1,3.4-.5,5.45-1,.98-4.23-.27-3.47,2.48-.57,1.6-.56-1.33-.5-1.98-1.51.65-2.82,3.05-3.47.5-1.29,1.55.5,3.12-.5,4.96-.67.34-.31-1.45-.5-1.49-.44-.09-2.08,1-2.48,2.48-.23.84.16,2.17,0,2.98-.17.82-.92,1.16-.99,1.49-.18.86.71,1.07.5,1.98-.18.74-1.28,1.34-1.49,1.98-.55,1.73.23,3.48-.5,3.97-1.31.15-1.63-.69-1.49-1.98-1.68.02-2.15-1.15-2.98-1.98.44-2.94-1.67-5.43-2.48-7.93-.57-1.78-.53-3.04-.99-4.96-.03-.12-.5-.03-.5-.5,0-.24.43-.71.5-.5-.21-.63-1.26-.99-1.49-1.49-.2-.44-.48-1.92-.5-1.98-1.05-3.76-2.13-8.12-3.97-11.9Z"/>
  <path class="st1" d="M542.21,263.27c-.66.23-1.38.41-1.98.74l1.74-.25c2.1.31,3.43-.34,4.46-.5,5.38-.8,12.94-1.46,15.87-2.98-.19.1-.63-.44,0-.5-.03,0,.87.93,1.49.99,1.87.18,5.1-.25,6.94-.5,7.42-1,14.21-3.06,21.32-3.97,2.16-.28,2.79-.77,3.97-.99,3.5-.65,5.64-.46,8.43-.99,6.16-1.18,12.74-2.94,17.85-3.97,1.51-.3,3.36-.11,4.46-.5.32-.11.44-.87.99-.99-.08.02.53.54.99.5.86-.07,1.54-.76,2.48-.99,1.53-.38,2.03-.03,2.98-.99-.15.16-.65-.19-.5-.5.2-.38.83.13.99-.5.1-.39-.44-1.7-.5-1.98.06.32-.48.61-.5.5-.13-.99.99-1.16,0-1.98-1.81-.44-2.64.88-3.47,0-.09,2.05,1.68,1.47,1.98,1.98-1.05.99-2.21-.7-3.47-.99-.78.38-.74,1.57-1.98,1.49-.41-1.59-.42-1.03.5-1.98-1.53-1.21-2.66.94-3.47-.99.5,0,.59-.4.99-.5-1.2,1.25.77.88.99.5-.73-.43-1.57-.74-1.49-1.98-1.35-.03-2.97.05-3.97,0,.45.02-1.32-.19-.99,0-.09-.06.1-.97,0-.99-1.04-.24-2.18.61-3.47-.5,1.5-.71,4.24-1.19,4.96,0,.08-.58-.08-1.41.5-1.49.51.88,1.49,2.07,2.98,1.82l1.74,1.16c1.05.91,1.69,1.71,3.22.99.77-1.99-1.41-2.31-2.48-2.23l-1.41-.83-1.07-.41c-.93-1.55-3.04-1.92-3.97-3.47,1.01,1,.97-.22,1.98-.5.48,1.94,1.82,1.47,2.48,1.98-.26-.2-.54.23-.5.5.2,1.18,1.85-.86,1.98.99,1-1.01-.22-.97-.5-1.98.5,0,.59-.4.99-.5l-.5-.99c-.03-.63-.64-.69-.5-1.49h-1.98c-.21-1.72-1.51-1.37-2.48-1.98-1.25-.79-2.63-2.88-3.47-3.47.23.16-.92.53,0-.5-2.13-.23-.63,1.33-1.49,1.49-1-1.01.22-.97.5-1.98-.88-.27-2.06-.25-2.48-.99.65-.64,1.83-.64,2.48,0l.58-.25h.41c.15,1.17,1.72.92,1.49,2.48,1.7-1.16,1.16.65,1.98.5,1.55-.28.69,1.12,2.98,2.48-.7-.42,1.75.41,1.98.5.21-2.03-.46-3.18-.99-4.46-3,.74-3.22-4.42-7.02-2.4l-.91.33c-.15-1.17-1.72-.59-1.49-2.15-1.85.64-3.87,2.43-4.96,0,.94-1.21.34-3.96.99-5.45,1.01,1,.97-.22,1.98-.5.01-1.17-.85-1.46-.5-2.98-1.47-1.27-2.45.82-2.98,0,.56-.1.77-.55.99-.99-1.85-.3-4.57-.08-4.96-2.98-.19.76-.59.07,0-.5-2.52.87,0-.33-1.98-.5-.98.83-.79,2.85-1.98,3.47-.01-1.27-1.3-.62-1.98-.99.2.11.76-.31.5-.5-.57-.39-2.81-.87-4.46-1.98-.86,1.31.07,3.2-.5,4.96-.03.11-.9.35-.99.5-.35.58-.3,2.23-.5,2.48-.41.54-1.57.47-1.98.99-.97,1.23-.57,3.49-2.98,2.48.06,1.37.95,1.7-.5.99.28,2.92-.56,4.73-1.98,5.95-2.45.46-3.36-.6-4.46-1.49-.16,1.15.08,1.9.5,2.48-2.4.03-1.96,5.37-1.98,5.45-.04.11-.93-.11-.99,0-.26.49.14,1.43,0,1.98-.21.82-.83,1.54-.99,1.98.42-1.1-.94.87-.99.99-.23.53-.51.77-.5,1.49.03,1.86.9,1.46.99,2.48,0,.03-.96-.05-.99,0-.43.61.44,1.78.99,2.48-1.12-1.18-2.34.48-3.47.99-.41.19-1.08-.19-1.49,0-.96.45-1.36,2.46-2.98,1.49-.67,2.29-2.03,2.13-2.98,2.48-1.39.51-2.56.65-3.97,0-.11,1.38-1.57,1.4-1.98,2.48-.54-1-1.62-.45-2.48-.5-1.4-.08-.12-.59-.5-.99.1.11-2.9-.65-2.98-2.48-2.18-.2-1.29,2.67-2.98,2.98l-.99.99c-1.68.63-2.31,2.32-3.97,2.98-.02.68.23,1.09.5,1.49-2.91.37-1.9,3.89-3.47,4.46,0-.5.4-.59.5-.99-1.9.24-1.75,2.55-3.47,2.98l.25.5-.25-.5"/>
  <path class="st8" d="M632.71,233.02c-.1-1.96.76-4.75,1.98-5.95.17-1-.1-1.55-.99-1.49.41-1.24,1.74-1.57,2.48-2.48,2.68.74-1.61,4.69,0,6.94-.87.95-1.76,1.88-2.48,2.98"/>
  <path class="st8" d="M459.64,279.63c1.49.09.41-1.9.5-1.98.1-.1.95.12.99,0,.27-.74-.87-1.67.5-2.48,6.44-.17,12.34-.88,18.35-1.49-.27-.72.58-2.56-.5-2.48,2.03-.13,5.35-.65,8.43-.99,6.36-.71,13.07-1.03,19.84-1.49,3.59-.24,7.23-1.21,10.91-1.49,4.51-.34,9.34-.42,13.89-.99,2.48-.31,5.04-1.23,7.44-1.49,7.19-.76,15.02-1.42,21.32-3.47,1.1.51-.65,2.28,0,3.97-2.03.45-2.53,2.43-2.98,4.46-2.9-1.3-4.85,1.45-5.95,3.47-1.35-.25-.75-1.43-1.49-1.49-1.43-.11-1.63,3.15-2.98,1.98-.55.94-.63,2.34-.99,3.47-2.39-.75-4.29,2.87-5.95,4.46-4.28-.15-6.67,1.6-6.94,5.45-1.04.29-1.42,1.23-2.98.99v4.46c-13.12,1.12-26.12,3.03-39.18,3.97-9.28.66-18.29,2.36-27.77,2.98-3.54.23-7.21.29-10.91.5.14-1.02,1.32-.99,1.98-1.49-.79-2.34-.84-3.58.08-5.46,0,0-.96-.73-.66-.99,1.32-1.16,1.54-.59,2.07-1.49.58-1-.41-1.74,0-2.48.09-.17,1.31-.33,1.49-.5.41-.39.38-1.34.99-1.98,1.05-1.09-.4-.91-.5-1.98-.14-1.54,1.92-1.97,1.49-3.47"/>
  <path class="st8" d="M635.19,276.66c.06.89-.61,1.05-.5,1.98-1.19.2-1.08-.91-2.48-.5-1.13,1.51-2.89,2.4-5.45,2.48-.91.75-1.17,2.14-1.98,2.98-.26-.56-.35-1.66-1.98-1.98,2.15,4.56-4.15,5.47-3.97,10.91-.65-.18-.78-.87-1.49-.99.02,1.63.84,2.47.49,4.46-2.43.71-5.32.97-7.44,1.98-.84-.36-1.09-1.36-1.98-1.98-.59-.41-1.85-.54-2.48-.99-.65-.47-1.28-1.47-1.98-1.98-.38-.27-1.07-.18-1.49-.5-.24-.18-.27-.83-.5-.99-.48-.33-1.06-.17-1.49-.5-.71-.55-1.9-1.72-2.98-2.48-1.54-1.09-3.52-2.81-4.46-2.98-.98-.18-4.38.66-6.45.99-2.46.39-5,1.07-7.93,1.49-.13-1.86-1.15-2.82-1.98-3.97-5.1-1.22-9.15-.06-13.89.5-2.09.25-4.23-.03-5.95.5-.77.23-1.84,1.11-2.48,1.49-.53.31-1.07.11-1.49.5-.63.59-1.07.91-2.48,1.49-.72.3-.53.05-.99.5-1.97,1.89-8.64,1.79-12.89,2.48-1.56.25-3.27.63-4.96.99v-3.97c1.56.24,1.94-.71,2.98-.99-.36-1.52.86-1.46.5-2.98,1.29-2.01,4.1-1.58,6.45-2.98,1.03-.61,1.77-2,2.98-2.98.62-.51.88-1.09,2.48-.99.95-1.86,2.27-3.35,3.47-4.96.99,0,.63,1.35,1.98.99,1.71-.92,2.69-4.71,5.46-2.98,1.78-1.19,1.37-4.58,3.97-4.96.02-1.63.84-2.47.5-4.46,5.64,0,10.11-.56,15.87-1.49,6.5-1.05,14.46-2.44,22.32-3.97,3.56-.69,8.61-2.03,13.39-2.98,3.07-.61,6.19-.88,8.93-1.49,2.66-.59,4.26-1.38,7.44-1.98,3.94-.75,5.18-.18,6.94,3.47-.65-.18-.78-.87-1.49-.99-.02.85.37,1.28.99,1.49-1.22,1.33-2.25-2.02-3.97-.5.16,1.17,2.35.29,1.98,1.98-1.3.32-1.52.11-2.98.99-.2.62-.57,1.44-1.49,2.48-.58-.42-1.33-.65-2.48-.5-.52-1.13-.31-2.99-.99-3.97-1.9,2.42,1.14,4.14.99,6.45,1.49.24,2.16-.21,2.98-.99,1.05-1,.48.49,1.98,0,1.11-.36,1.86-1.18,3.47-1.49.38,1.27.73,2.28-.5,2.98,1.48.71.03,1.25.99,2.48,2.34-.28.88-3.59,1.49-4.46.7.04,1.4.08,1.49-.5,1.34.64,1.5,2.46,1.49,4.46h-1.49c-.34.7-1.04,3.43-1.98,4.96-1.67-.15-4.3.66-3.97-1.49-.58.08-.42.9-.5,1.49-1.83-.09-.97-1.62-1.49-1.98-1.73-.24-.55,2.42-1.98,2.48-2.13.34-3.76-1.44-4.96-.5,1.6,1.88,5.29,1.65,7.93,2.48.34,1.33-1.03.96-1.49,1.49-.61,1.61,1.6.38.99,1.98-.87.45-1.54,1.11-1.98,1.98-1.33-.65-2.64-1.33-3.97-1.98-.81.86,1.01,2.59,2.48,2.98,1.88.49,4.1-1.57,5.46-.5-.74-1.52.49-1.58.5-.5"/>
  <line class="st7" x1="634.69" y1="275.67" x2="634.78" y2="276.25"/>
  <path class="st8" d="M634.78,276.25c.22-.08.63-.26,1.16-.33"/>
  <line class="st7" x1="634.78" y1="276.25" x2="635.19" y2="276.66"/>
  <path class="st8" d="M585.6,326.75c-.44-.22-.89-.43-.99-.99-1.05,1.4.59,4.35,1.98,4.96-.21.78-.45-.13-.99,0-.5.12-.72,1.5-.99.5-1.28.12.68.85,0,1.98-2.06.57-1.93-1.04-3.47-.99.82-3.64-3.82-4.81-1.49-6.94-2.92,2.27-.38-.58-2.98.5-.78-.79-.23-1.64-.5-2.48-.32-1-1.12-1.18-1.49-1.98-.19-.42.38-1.15.5-.99-.44-.6-1.7-1.23-2.48-1.98-.54-.51-1.29-.05-1.98-.5-.78-.5-.44-2.36-1.98-1.49.93-.93-.91-1.56-.99-1.98-.06-.31.7-.61.5-.99-.18-.33-.67.45-.5.5-.18-.05-1.63-2.91-1.49-1.49-.04-.41.64-.91.99-.99-.18-.69-.87-.04-.99.5-.57-.95-2.13-.37-2.98-.99-.26-.19-.26-1.23-.5-1.49-.36-.39-1.72-1.84-2.48-2.48-.29-.24-1.15.18-1.49,0-1.55-.85-1.89-2.94-3.47-3.47.51-1.59.15,0-.99-1.49-.07-.09-1.01-1.07-.99-.99-.16-.8.61-.88.5-1.49-.04-.21-.52.27-.5.5-.1-1.16-.69-1.29.5-1.49-.18-.69-.87-.04-.99.5-.99-1.65-5.02-.27-4.96-2.98-.99,1.03-2.12.02-2.48-.99.61-1.54,1.09-3.21,2.98-3.47-1.32-1.31,1.47-1.05,1.49-2.48,3-.56,3.91-.19,3.97-1.98.58-.39.88.5.99.5.69,0,.12-.8.5-.99.06-.03,2.03.65,1.98-.99,2.64.14,5.69-.63,8.93-.99,3.57-.4,8.04-1.46,8.93.99.48-.01.39-.61.5-.99,1.72.59,2.09,2.54,2.48,4.46.95-.27,2.28-.94,3.47-.99.45-.02,1.06.48.99.5.52-.09,1.17-.91,1.49-.99,1.49-.4,3.75-.19,5.46-.5,1.07-.19,2.55-.44,3.47-.5.7.17.04.87-.5.99.26,1.04.98-.75,1.98-.5.02,0,.39,1.41.5,1.49.3.23,1.14-.14,1.49,0,.22.09.66.79.99.99.67.41,1.29.48.5,1.49,1.72-.52.83-.5,2.98.99.48.33,1.85.87,1.98.99.33.31.12,1.22.5,1.49.69.48,2.37-.14.99,1.49.44-.39,1.12-.53,1.98-.5.1,1.57,3.4,1.41,1.98,2.98.4-.26.81-.52,1.49-.5-.43,1.73-1.99,1.69-2.98,2.98-.33.43-.16.64-.5.99-.59.62-.95,2.8-1.49,3.97-.11.24-.71-.3-.5-.5-.56.09-.27.5,0,.5-.6.13-1.98,1.89-1.98.99-.65.15.87,3.74-1.49,3.47.42,1.29,2.17-.95,2.98.5-.14,1.15-1.32,1.14-1.98.5.29.93.96,1.83,0,1.49-.59-.21.08.96,0,1.49-1.3,0-3.29.28-1.98-.99-2.15.65.55,2.02-.99,1.49-.5-.17.31,1.65,0,1.98-.38.78-1.57.74-1.49,1.98-1.41.08-.97-1.68-2.98-.99.34,1.32.95,2.36,1.49,3.47-1.27-.53-1.74,2.14-2.48.5-.56.09-.27.5,0,.5-.31,1.87-2.07-.54-1.98,1.98-2.54.95-4.71-.77-5.46,1.98"/>
  <path class="st4" d="M538.24,362.33c-1.23-.17-2.68,1.16-5.21.62-.64-1.75-1.74-3.95-2.98-5.95-.32-.52-.83-.86-.99-1.49-.35-1.37.3-3.76,0-5.46-.24-1.39-1.4-2.53-1.49-3.47-.25-2.82.32-5.97,1.98-7.93-.88-1.25-.8-3.12-1.49-4.46-.3-.58-1.13-.53-1.49-.99-.36-.47-1.57-3.37-1.98-4.46-1.6-4.18-2.65-10.05-3.97-14.88-1.9-6.94-3.96-13.15-5.54-19.09,10.64-1.59,21.79-2.01,31.82-4.22-.72,1.43-1.36,2.94-2.48,3.97.3,2.84,4.08,2.2,4.96,4.46,1.53-.35.95-.35,2.48,0,1.45,2.23,3.33,6.24,5.46,7.93.42.34,1.09.17,1.49.5.85.7-.74,1.02,1.49.5-.22.94,1.69.95,1.49,1.98,0,0-.79.13-.5.5-.02-.02.7-.33.99,0,1.01,1.14,1.81,1.4,3.97,2.48,1.11,3.68,4.13,5.45,7.44,6.94.23,2.25,2.02,2.94,1.98,5.45.4,1.25,2.04,1.27,2.98,1.98-.96.89.29.83,0,.5,1.63,1.87,1.67,3.4,2.48,5.95,1.61-.29,2.31.34,3.47.5-.28,1.89-1.68,3.21-2.98,1.49-.29,1.61.34,2.31.5,3.47-2.58-.88-1.7,5.12-.99,5.95-1.12.29-1.26.84-1.98.99-.17.04-1.05-.77-1.49,0,.42,1.07,2.56.42,2.98,1.49-.06,1.84-.72,1.25-1.98.99.74,3.98-.44,5.07.99,7.94-2.26-.06-4.62,0-5.45-1.49-.72.93-1.63,1.67-2.48,2.48.75,1.3,1.63,4.33.5,5.95-1.88.06-1.03-2.61-2.48-2.98-10.4.51-20.89,1.55-31.49,1.86Z"/>
  <path class="st8" d="M497.33,372.86c-.66-.07-1.5,2.02-1.98.5-1.35-.35.35,2.34-.99,1.98-1.64-.34-1.14-2.83-3.47-2.48.33-2.64-.29-4.34-1.98-4.96-1.02,1.29-1.05,3.58-.99,5.95h-3.47c-1.05-4.01-.95-8.47-1.49-12.89-.68-5.52-2.69-10.46-1.98-17.36,1.26-12.37.34-28.78.99-42.65.83-1.87-2.31-2.26-.99-2.98,11.66-.4,22.33-1.81,33.23-2.98,1.88,7.83,5.1,16.42,7.44,24.8.79,2.84,1.05,5.84,1.98,8.43.47,1.31,1.26,3.3,1.98,4.46.46.74,1.62,1.18,1.98,1.98.46,1.03-.63,2.98.99,3.47-.94,1.62-1.09,2.64-1.49,4.96-.5,2.93-.17,4.43,1.49,6.94-.1,1.55.33,3.64-.5,4.46.06,2.09,1.92,2.38,1.98,4.46-7.71.39-16.96,2.1-25.29,2.98-3.99.42-9.52-.64-10.91,2.48.34,2.3,2.28,3.01,3.47,4.46-.68,1.5.24,1.77,0,3.97Z"/>
  <path class="st8" d="M443.44,319.47c.08-.58-.11-.88-.5-.99.45-.87,1.74-.91,2.48-1.49-1.89-3.97,5.25-5.59,3.47-9.42.67-1.11,1.43-1.12,1.49-1.98.16-2.27.47-1.37,1.49-2.98.2-.32.71-.72.5-1.49,8.83-1.08,18.52-1.32,27.27-2.48-.23,1.06.71.94,1.49.99-.59,12.46-.4,25.12-.99,37.69-.59,12.54,2.34,24.29,3.47,35.33v.87c-1.12.28.6.77-.5,1.49-1.26-.49-2.41-1.41-2.98,0-1.45-.36-1.62-.97-2.98-.99-2.07-.03-4.16,2.09-6.45,1.98-.93.56-1.05,1.92-1.98,2.48-2.18.2-1.71-2.26-2.48-3.47-.39-1.43-1.81-1.83-2.48-2.98-.44-2.76.95-3.68.99-5.95-8.03-1.09-16.89,1.29-25.79.99-1.26-1.92-1.14-4.56.99-3.97-.59-.71-.42-2.23-.5-2.48-.24-.81.15-1.7.5-2.48-.02.04.85-.21.5-.5-1.42-1.13,2.48-1.99.99-3.97,1.37-.95,2.52-2.11,3.47-3.47-.25-1.45,1.57-2.8-.99-2.48,1-.65,1.73-1.58,2.98-1.98-.2-1.45-1.7-1.61-2.48-2.48,1.09-1.03-.43-1.6.5-2.48-.15-.67-1.24-.41-1.98-.5.48-.51.98-1,1.49-1.49-.08-.58-.9-.42-1.49-.5-.24-1.56.62-2.03,1.49-2.48-.14-1.02-1.85-.47-1.98-1.49-.72-2.02,1.78-1.88.99-4.46-.06-.2-.97-.88-.99-.99-.17-.96.6-1.67.5-1.98-.47-1.38-1.83-1.24-1.49-2.48.72-.6.66-1.98,1.98-1.98-.08-.58-.9-.42-1.49-.5.05-.94,1.64-.34,1.49-1.49"/>
  <path class="st8" d="M596.01,387.25c.65.18.78.87,1.49.99-.2,1.23-1.92.03-1.49-.99Z"/>
  <path class="st8" d="M601.22,444.77c.75-.22,1.81-.3,1.98-1.24"/>
  <line class="st7" x1="603.2" y1="443.53" x2="602.96" y2="443.78"/>
  <line class="st7" x1="569.73" y1="402.62" x2="569.23" y2="402.37"/>
  <line class="st7" x1="569.23" y1="403.86" x2="569.73" y2="403.61"/>
  <line class="st7" x1="568.74" y1="403.61" x2="569.23" y2="403.86"/>
  <line class="st7" x1="569.23" y1="402.37" x2="568.74" y2="402.62"/>
  <path class="st4" d="M568.99,403.11c-.44-4.2,1.66-9.53-.25-14.38-1.77-.87-2.15-3.14-3.47-4.46-1.23-.64-2.41,1.11-2.48,0-2.63-1.01-3.49-3.79-6.45-4.46.86-2.51-1.57-2.3-2.98-3.47-.79-.66-.76-1.9-1.49-2.48-.35-.27-4.03-1.82-4.96-1.98-1.08-.19-3.03-.29-3.97,0-.66.21-.76.72-1.49,1.49.05-.05-1.52,1.37-1.49.99-.02.28,1.16.83,1.49.5-.75.75-1.56.52-2.48.99-1.53.78-2.25,2.05-2.98,2.98-.74.63-1.07-.97-.99-.99-.94.22-1,1.47-1.98,1.98-1.32.7-2.76-.35-3.47.99-.76-2.06-1.43-4.19-3.97-4.46.5-.68.82.21,1.49-.99-1.18-.97-2.57-1.73-4.46-1.98.61-.88,1.54-1.44,1.98-2.48-.07-1.55-1.58.9-1.98.99-.88.21-2.51-1.45-2.48.99-1.69-.13-2.38-1.25-4.46-.99,2.62-2.38-2.51-2.6-3.97-2.98-1.3,2.01-4.45,2.16-6.94,2.98.02-.82-.79-1.66-.99-3.47-1.5-.35-.46,1.67-.99,1.98-.17.1-.63-.97-.99-.99-1.06-.07-.42,1.53-1.49,2.98h-.99c-.36-.84-2.63-2.28-.99-3.47-.64-1.84-3.36-1.6-3.47-3.97.68-3.06,3.92-1.68,5.95-1.98,9.07-1.35,20.3-2.43,29.75-3.47.65,1.33,1.33,2.64,1.98,3.97,12.92,0,26.02-2.38,37.69-1.98-.07,1.23.26,2.06.99,2.48,4.27.25.39-5.91,1.98-7.44,1.42-.67,3.94,1.16,6.94.5.56,1.5-.26,3.71,1.98,4.46-.02,3.12,1.76,5.71,2.98,8.43,2.64,5.89,6.19,11.99,10.91,16.37-.22.74-.63-.2-1.49,0-.41,2.33.92,4.41,1.98,6.45.94,1.8,2.35,3.76,3.47,5.46.85,1.29,1.33,2.27,2.48,3.47,1.58,1.65,2.34,5.61,4.46,7.44.04.7.08,1.4-.5,1.49,2.56,1.11,3.15,1.91,4.46,5.95.91,2.8,1.91,11.92.99,15.87-.28,1.21-1.34,2.33-1.49,3.47-.15,1.17.6,2.38.5,3.47-.12,1.22-1.39,1.78-.99,2.98-2.98-.5-3.63,3.42-6.45,1.49l-.25-.25-.25.25c-.07-1.59-1.12-2.18-2.98-1.98-1.24-1.65-2.6-3.21-3.97-4.96-1.05-1.35-1.09-2.41-2.98-2.98-1.44-.44-2.73.33-3.97-.5-1.02-1.79-2.2-3.42-2.48-5.95-.14-1.02-1.32-.99-1.98-1.49.13-1.85,1.15-2.82,1.98-3.97-2.38-.4-2.06,1.91-2.98,2.98-1.66-.67-1.96-4.73-.99-6.45-.62-.87-2.03,1.27-3.47,0-1.39.64,1.56,1.03.99,2.48-3.54-.76-4.72-3.87-5.95-6.94-.28-1.54-2.33-1.3-2.48-2.98,1.69.15,1.1-2.18,1.49-2.98.42-.87,1.94-1.34,1.49-2.48-.64-2.7-2.39-1.05-4.71-2.48l-.25.5c.96.2.04,2.27,1.98,1.49-.38.44-.53,1.12-.5,1.98-1.85.53-1.41-1.23-2.98-.99-.41-1.4.7-1.29.5-2.48l.25-.5Z"/>
  <path class="st8" d="M442.78,335.18c1.22.09-.12,1.11,0,1.98.09.65.99,1.44.99,1.49,0,.6-1.14.86-.99,1.49.13.57.85.65.99.99.16.41-.2,1.1,0,1.49.48.93,1.3,1.57,1.98,2.48-.35,1.31-2.26,1.05-2.48,2.48.36.46.9.75,1.49.99-.14.58-2.81,1.43-.5,1.49-.95,1.37-2.11,2.52-3.47,3.47.9,1.92-2.08,4.09-1.98,4.96.09.84.58,1.09.5,1.98,0,.06-.93-.07-.99,0-.47.49.92,1.35.5,1.98-.4.26-.8.52-1.49.5.55,1.67,1.48,3.95,0,4.96,8.93-.82,18.44-1.06,27.28-1.98-.7,1.29-.69,3.28-1.49,4.46.97,3.25,2.97,4.69,4.46,7.93-.61,1.69-1.47-.26-2.48-.5-.74-.17-1.78.28-2.48,0-.59-.23-1.75-2.42-3.47-1.98-1.82.99-3.08,2.55-3.47,4.96,2.37,2.58,8.27-.29,9.42-.5,1.74.85-1.24,1-.99,1.98.66,1.16,2.22,1.42,3.47,1.98,1.42-.4.31-3.33,2.48-2.98-.57,2.06,1.04,1.93.99,3.47-2.3-.21-3.34.83-2.48,2.48-2.38-.19-.42.86-1.98,1.49-.56,1.82,2.07,1.27,2.98,1.98.29.23.13,1.32.5,1.49.23.1.91-.74,1.49-.5.29.12,1.08,1.73,2.97.99.93,1.15,2.05,2.11.99,3.97-1.21-.28-1.81-1.16-2.48-1.98-.5.32-.51,1.14-1.49.99.06-.89-.61-1.04-.5-1.98-1.58.75-2.27-.66-2.98-.99-.37-.17-1.16.23-1.49,0-.27-.19-.22-1.25-.5-1.49-.79-.69-1.51.12-2.98-.5-.94-.4-1.85-1.82-3.47-1.49-.56,2.38,1.89,1.74,2.48,2.97.81,1.16-.95,1.34-.99,1.49-.18.72,1.63,2.58-.5,2.98-1.67.51-.77-1.54-.99-2.48-.52-.31-2.06.41-2.48,0-.49-.48.32-1.21-1.49-.5-1.3.51-2.12,1.26-2.48,3.47-1.42,0-4.39-1.84-5.46-.99-.44-2.54-3.13-2.82-2.48-6.45-1.06-.23-.95.71-.99,1.49-1.57.24-1.75-.89-3.47-.5-.34-2.14-1.65-3.31-4.46-2.97v-1.49c-1.8.51-3.07,1.56-4.96,1.98-1.39.64,1.56,1.02.99,2.48-1.01-.74-1.6.91-2.48.99-.8.08-2.7-.85-3.97-.99-2.35-.27-3.55-.68-5.95-1.49-1.35-.45-2.2-1.48-3.97-.99,1.04-1.93.08-3.78-.99-4.96-.24,1.28-1.68,3.91-.99,4.46-1.03,1.62-4.6.69-6.45,1.49-.69-1.09,1.1-1.14,1.49-1.98.31-.68-.2-1.76,0-2.48.13-.48.91-.82.99-1.49.17-1.4-.9-2.16-.99-3.47-.06-.9.28-3.1.5-3.97.27-1.09,1.71-2.19,1.98-3.47.5-2.36.3-5.87,0-6.94-.22-.78-1.62-1.35-1.98-1.98-.57-.98-.23-3.73-1.98-3.97.5-4.14-1.98-5.29-3.47-7.44.36-5.82-.57-10.34-.5-15.87,9.17-.15,19.39-.99,28.76-1.49,3.21-.17,6.48-.2,9.42,0-.81,1.86.06,1.53.99.5Z"/>
  <path class="st8" d="M437.32,391.71c-1.05,1.09-1.47-.64-2.97-.5.49-1.21,3.02-1.33,2.97.5Z"/>
  <path class="st8" d="M445.26,394.19c.54.12.34.99.99.99-.44,1.34-2.2-.42-.99-.99Z"/>
  <path class="st4" d="M360.46,420.97c-1.5-.67-3.96-.67-5.46,0,.57,1.17,1.33.47,1.98.99.5.4.83,1.11,1.49,1.98-.12,2.03-1.5,2.79-1.49,4.96-2.96.65-3.69-.93-5.45-1.49-.08,1.57,1.32,1.66.99,3.47,1.79.17,2.39.76,3.97,0-.65,1.34-.59,3.38-1.98,3.97-1.02,2.26,1.08,3.03,1.49,4.46.38,1.34.14,3.1.5,4.46.3,1.16,1.23,1.92,1.49,2.98.44,1.78-.38,3.8.99,4.96.2,1.19-2.26-.28-1.49,1.49-2.41-.03-3.15-2.86-5.45-3.47-2.16-.57-4.36.41-7.44,0-1.75-1.39-2.94-3.34-6.45-2.98-.63-2.01-2.8-2.49-5.46-2.48-.52-.22-.18-1.04-.5-1.49-.09-.13-.99-.5-.99-.49-.41-1.05-.16-2.45-.5-3.47-.75-2.24-2.17-3.95-3.47-5.46-.34-1.03.51-1.32.5-1.98-.03-1.08-.92-1.24-.99-1.98-.12-1.19.68-2.48,0-3.97-.54-1.44-2.03-1.94-3.47-2.48-1.24-2.73-3.26-4.68-4.46-7.44-.45-.87-1.74-.91-2.48-1.49-.34-1.13-.73-1.85-.99-3.97,0-.07-.25-1.33-.99-2.48-.12-.19-.92-.33-.99-.5-.12-.27.14-.73,0-.99-.46-.85-.69-1.65-1.49-2.48-.42-.43-.51-2.24-.99-3.47-.87-2.22-2.82-3.46-4.46-5.46-.72-.87-2.17-2.47-3.47-3.47-.21-.16-.75-.26-.5,0-1.62-1.67-1.76-2.67-2.98-3.97-2.08.52-5.19.29-8.43-.5-1.75-.42-3.75-2.23-4.96.5-1.66-.66-3.55.3-4.46,1.49-.78,1.02-1.51,3.36-2.48,5.45-.85,1.83-2.83,3.62-4.46,4.96-2.81.07-4.9-2.04-6.94-3.47-.65-.46-1.06-1.25-1.49-1.49-1.07-.57-2.49-.3-3.47-.99-2.06-1.44-3.09-4.51-5.95-4.96-.09-2.85-3.34-4.29-2.48-7.94.27-1.14.36-2.16-.5-3.97-.09-.19-.28-1.13-.5-1.49-.1-.17-.94-.36-.99-.5-.2-.54.28-1.48,0-1.98-.46-.83-.94-1.38-1.49-1.98-.77-.84-1.52-1.8-2.48-2.48-.72-.51-2.14-.69-2.98-1.49-.61-.58-.96-1.74-1.49-2.48-.58-.81-1.38-1.24-1.98-1.98-2.14-2.65-3.47-5.05-6.94-6.45-.08-1.4-.91-2.07-.99-3.47-1.23-1.91-4.35-1.93-3.97-5.46,15.58,1.77,31.56,3.15,48.1,3.97.65-.18.78-.87,1.49-.99,1.38-24.57,3.28-48.63,4.96-72.9,12.57.98,25.99,1.12,38.68,1.98.05,10.79-.14,21.35-.99,31.24,2.27.54,3.3,2.32,4.96,3.47,2.49.33,4-.62,5.45,0,.83.66.17,2.81.99,3.47,3.83.14,7.25.69,9.42,2.48,1.88-1.19,2.05-1.35,4.96-.99-.23,1.55.43,2.21,1.98,1.98-.16,1.15.08,1.9.5,2.48,1.81,0,2.23-1.41,3.47-1.98,1.2.46,2.02,1.28,2.48,2.48,1.43.1,2.52-.13,2.98-.99,1.12.21-.07,2.72,1.49,2.48,1.12.06,1.32-1.59,1.98-2.48.18-.24.63-.43.5-.99,1.91.71,2.41,2.06,4.96.99.66,1.65,2.81,1.82,3.97,2.98.94-1.05,2.48-1.48,3.47-2.48,1.45-.45,1.52-.45,2.98,0,1.24-.25,2.04-.94,2.98-1.49.93.56,3.83,2.18,4.96,0,2.14-.63,3.71,2.33,4.96,2.98.39.2,1.09-.19,1.49,0,.19.09.35.94.5.99,1.56.54,3.87-.1,4.46,1.98,1.4-.61,3.06-.61,4.46,0,.64,8.12.66,16.86.99,25.29.77,1.22,1.99,1.97,2.98,2.98-.25,1.56,1.08,1.94,0,2.98.33.58.53,1.3.99,1.98.36.53,1.25,1,1.49,1.49.19.39-.21,1.11,0,1.49.93,1.65,2.2,1.91,1.98,4.96,0,.04-.58.05-.5.5.07.36.46,1.82.5,2.98-2.32,2.45-2.98,7.87-1.49,11.41-1.11,1.73-5.13,4.04-2.48,6.45-1.28.75-2.23.57-3.47.99-1.33.45-2.41,1.72-3.47,1.98-.8.2-.86-.55-1.49-.5-.45.04-2.28.72-3.47.5.68-.64.49-2.15.5-3.47-1.75-1.39-2.15,1.31-2.98,1.49-.99.22-1.08-1.95-1.98-.5,0,2.63,1.09,3.73,1.98,6.45-1.61.37-1.76,2.21-3.47,2.48-.12,4.34-4.45,4.47-6.45,6.94-1.87-.38-2.37.6-3.97.5-.67.15-.41,1.24-.5,1.98-1.1.24-.71-.9-1.49-.99.42.05-1.86,1.12-2.48.5-.1-.1.12-.95,0-.99-.94-.33-2.74,1.61-2.98-.99-1.45.42.3,1.6,0,2.48-2.15.33-1.14-2.49-3.47-1.98-1.23,1.13,2.82,3.15.99,4.96.44-.38,1.12-.53,1.98-.5-1.49,2.32-3.5,1.89-4.96,0-1.14,1.41.87,3.4-.99,4.46-.69-2.13-3.32,1.64-4.96,0,.55,1.55-.5,2.74,1.49,3.47-.14-.8.47-.85.5-1.49,1.24.95-1.7,1.9-1.49,3.47Z"/>
  <g>
    <text class="st13" transform="translate(489.78 288.88)"><tspan x="0" y="0">TN</tspan></text>
    <text class="st13" transform="translate(611.17 150.35)"><tspan x="0" y="0">NY</tspan></text>
    <g>
      <text class="st13" transform="translate(62.77 253.29)"><tspan x="0" y="0">CA</tspan></text>
      <text class="st13" transform="translate(104.46 216.97)"><tspan x="0" y="0">NV</tspan></text>
      <text class="st13" transform="translate(153.14 307.84)"><tspan x="0" y="0">AZ</tspan></text>
      <text class="st13" transform="translate(166.93 225.93)"><tspan x="0" y="0">UT</tspan></text>
      <text class="st13" transform="translate(245.11 240.78)"><tspan x="0" y="0">CO</tspan></text>
      <text class="st13" transform="translate(226.06 316.08)"><tspan x="0" y="0">NM</tspan></text>
      <text class="st13" transform="translate(225.07 172.26)"><tspan x="0" y="0">WY</tspan></text>
      <text class="st13" transform="translate(148.6 150.8)"><tspan x="0" y="0">ID </tspan></text>
      <text class="st13" transform="translate(86.73 77.72)"><tspan x="0" y="0">WA</tspan></text>
      <text class="st13" transform="translate(73.19 131.25)"><tspan x="0" y="0">OR</tspan></text>
      <text class="st13" transform="translate(211.23 103.73)"><tspan x="0" y="0">MT</tspan></text>
      <text class="st13" transform="translate(313.01 158.27)"><tspan x="0" y="0">SD</tspan></text>
      <text class="st13" transform="translate(310.77 108.44)"><tspan x="0" y="0">ND</tspan></text>
      <text class="st13" transform="translate(314.48 198.48)"><tspan x="0" y="0">NE</tspan></text>
      <text class="st13" transform="translate(333.96 252.27)"><tspan x="0" y="0">KS</tspan></text>
      <text class="st13" transform="translate(347.07 298.86)"><tspan x="0" y="0">OK</tspan></text>
      <text class="st13" transform="translate(394.28 192.83)"><tspan x="0" y="0">IA</tspan></text>
      <text class="st13" transform="translate(373.84 129.7)"><tspan x="0" y="0">MN</tspan></text>
      <text class="st13" transform="translate(403.59 254.62)"><tspan x="0" y="0">MO</tspan></text>
      <text class="st13" transform="translate(323.26 364.44)"><tspan x="0" y="0">TX</tspan></text>
      <text class="st13" transform="translate(409.76 309.54)"><tspan x="0" y="0">AR</tspan></text>
      <text class="st14" transform="translate(411.32 355.76)"><tspan x="0" y="0">LA</tspan></text>
      <text class="st13" transform="translate(449.52 340.19)"><tspan x="0" y="0">MS</tspan></text>
      <text class="st13" transform="translate(452.3 220)"><tspan x="0" y="0">IL</tspan></text>
      <text class="st13" transform="translate(435.1 153.97)"><tspan x="0" y="0">WI</tspan></text>
      <text class="st13" transform="translate(490.86 338.93)"><tspan x="0" y="0">AL</tspan></text>
      <text class="st13" transform="translate(534.88 338.35)"><tspan x="0" y="0">GA</tspan></text>
      <text class="st13" transform="translate(486.82 219.09)"><tspan x="0" y="0">IN</tspan></text>
      <text class="st11" transform="translate(501.2 261.97)"><tspan x="0" y="0">KY</tspan></text>
      <text class="st13" transform="translate(523.74 217.01)"><tspan x="0" y="0">OH</tspan></text>
      <text class="st13" transform="translate(499.61 171.42)"><tspan x="0" y="0">MI</tspan></text>
      <text class="st13" transform="translate(599.09 187.67)"><tspan x="0" y="0">PA</tspan></text>
      <text class="st13" transform="translate(585.73 277.04)"><tspan x="0" y="0">NC</tspan></text>
      <text class="st13" transform="translate(568.48 309)"><tspan x="0" y="0">SC</tspan></text>
      <text class="st11" transform="translate(582.4 251.9)"><tspan x="0" y="0">VA</tspan></text>
      <text class="st12" transform="translate(668.91 88.19)"><tspan x="0" y="0">ME</tspan></text>
      <text class="st11" transform="translate(580.66 411.93)"><tspan x="0" y="0">FL</tspan></text>
    </g>
  </g>
  <text class="st10" transform="translate(94.06 396.28)"><tspan x="0" y="0">AK</tspan></text>
  <text class="st9" transform="translate(234.06 433.1)"><tspan x="0" y="0">HI</tspan></text>
  <line class="st6" x1="616.7" y1="216.16" x2="656.02" y2="257.65"/>
  <line class="st6" x1="637.17" y1="222.61" x2="658.87" y2="243.79"/>
  <line class="st6" x1="635.93" y1="212.24" x2="662.04" y2="226.08"/>
  <line class="st6" x1="641.14" y1="191.84" x2="666.43" y2="202.52"/>
  <line class="st6" x1="668.91" y1="152.68" x2="688" y2="174.69"/>
  <text class="st9" transform="translate(688.58 184.8)"><tspan x="0" y="0">RI</tspan></text>
  <text class="st9" transform="translate(655.47 268.74)"><tspan x="0" y="0">DC</tspan></text>
  <text class="st9" transform="translate(660.22 252.91)"><tspan x="0" y="0">MD</tspan></text>
  <text class="st2" transform="translate(665.25 233.89)"><tspan x="0" y="0">DE</tspan></text>
  <text class="st9" transform="translate(666.83 211.2)"><tspan x="0" y="0">NJ</tspan></text>
  <text class="st15" transform="translate(649.68 158.95)"><tspan x="0" y="0">CT</tspan></text>
  <text class="st15" transform="translate(654.86 128.1)"><tspan x="0" y="0">NH</tspan></text>
  <text class="st15" transform="translate(658.33 145.11)"><tspan x="0" y="0">MA</tspan></text>
  <text class="st12" transform="translate(556.99 231.6)"><tspan x="0" y="0">WV</tspan></text>
  <text class="st15" transform="translate(639.72 116.55)"><tspan x="0" y="0">VT</tspan></text>
  <g>
    <g>
      <text class="st18" transform="translate(646.65 332.83)"><tspan x="0" y="0">RIC</tspan></text>
      <rect class="st0" x="617.4" y="321.57" width="24.71" height="14.85" rx="3.86" ry="3.86"/>
    </g>
    <g>
      <text class="st18" transform="translate(646.65 355.62)"><tspan x="0" y="0">Lease-to-own</tspan></text>
      <rect class="st17" x="617.4" y="344.67" width="24.71" height="14.85" rx="3.86" ry="3.86"/>
    </g>
    <g>
      <text class="st18" transform="translate(646.65 379.54)"><tspan x="0" y="0">Does Not Operate</tspan></text>
      <rect class="st16" x="617.4" y="367.76" width="24.71" height="14.85" rx="3.86" ry="3.86"/>
    </g>
  </g>
</svg>